/* XPM */
static char *floor_sprite_resized[] = {
/* columns rows colors chars-per-pixel */
"80 80 33 1 ",
"  c #995F5D",
". c #9E6257",
"X c #9E635C",
"o c #A1645C",
"O c #A16660",
"+ c #AF7465",
"@ c #B27666",
"# c #B67A66",
"$ c #B97D66",
"% c #B67B69",
"& c #B97C69",
"* c #BD816B",
"= c #BF8370",
"- c #C2856E",
"; c #C98E6E",
": c #CB906F",
"> c #C08570",
", c #C68973",
"< c #CA8E72",
"1 c #CD9273",
"2 c #CD9278",
"3 c #D19576",
"4 c #D39877",
"5 c #D29779",
"6 c #D59A7B",
"7 c #D99D7E",
"8 c #DCA07E",
"9 c #DB9F81",
"0 c #DDA282",
"q c #E1A686",
"w c #E3A887",
"e c #E2A788",
"r c #E4A98A",
/* pixels */
"X-7eqr37rqe39rreqr7$o<e55q<qr81wr379<we7@.XXXXXXX.XX..XX..X %001wwr01wr7502qwr0<",
" *7eqr:7rre<9rewrr8$ <q55e<qw73ww3702we7*X=,,;<<>,,<,<,<,,,X%00;wwr01wr4401qwr01",
" *7eqr17rqr39rrrqr9$o<q45e<qr83rw270<er7+X3805108033q026q9<X&8q050r92wr56010wr0<",
" -7rq766qqe30ww7rr7$X<q45e<qr72rr3702wr6*X1wr01rqw73rw17re<o$8r0<0r01qr560<wrq0<",
"X*9rq;e55rw17r0;qr7$ ;w46e50q830e279<qr7+X10r61wqr33rw17r0<.$7qq:0r02qr360500r0<",
" *9rq<q55rw20r01qr7$o<w55rw18r0:r3702qr7*X10r83rrr72rw17r0<X&8rq:0r01rr69r010r0<",
" *9rq<e55ww20r01qr7$X<q65rr10r0:r260<er7#X2qr83wqr73rr27r0<X*8rq10r01wr62rr<0r01",
" *8rq<qq0ww18r01qr7&X<q55rw20r01e3702ee7$X20r63rrr72rr28r0<X$8rq10r01rr490r20r01",
"X*8rq10rrrr28r0:rr8@X;w56rr10r01r279<rr7@o2qw81rr790rw37rr2X&7rq;qr03wr46rr10r0:",
".*8r01qq0rq20w750r0*X;q46rr20r0:e57050e7#X10w73wr26rqe<7r0<X$7q847q91wq67rr<0r0<",
" *8rq1q36re1073r;06* 1041r020r0;q26re,99$o20r82rr37ewr37r02X$7q;r37q3e27rrr<8r9<",
" *8rq1q56re1073w:08@ 1e56r020r0:r27r0209#o1qr73rr27rerrrrr2X$7q;q36eqe27rer10r0<",
" *80q1q56re1072w108*O<r66rr10r0;r36re<09#.10ww0rr2703er66e< &9q;r27rwr27rer<9rq<",
" %0r01q56r01073w100*X;055rw10068r36rw<07#o1wwrrwr370<rr55e<o$7q;e37eqr18ree19r9<",
"X*8002065re1072w106*X=056rq1061rr36r0<07#o10w00ww2701qr55e<o$8q;e27rrr19rwr19r9<",
"X*0re2056rw1083w;00*X1056rw1005rr57wq<e7#o1wr72rr290<rr55q<O&77;e35eqq<7qqq17q8<",
" *8001083rr1096r:06* 1w450r1085rqr75e<09#o2wr43wr27010r650,o&5,<<<<<2,<<<<<<,<<2",
" *0r05056r0r560r204* =q68rr1083rrr53e<09#o20r83rr27rrrr66w<OooXoXOXXXooooo.oXXo.",
" *8r01085rrr16rr:00*O1064001063rqr53w<09#o2qr83rr27060r550<X+&&&&&&&&&&&&&&#&&&&",
" #8001056rwr46r0208*X=q58rr1081rrr750<09#o20r61rr17810r55e2X&5993696391676277771",
".*8r01086r0r56r0:05*X1w45rr1081rwr750209#o1wr84rr34010r65q<X&7re:0r02r29rq;qrrq;",
" *8rr1056rrr38rr:06*X=045rr1003rqr65r<00#.10qrrwr1701rw65e<X&9ee:0r01q27rq<qrr9<",
" *8040r66rwr56rr109* <w66r01085rwr62r<07&o20rqqrr38010r65w<X$7re:0r92e37rq<qrrq;",
" *081rr56r0r36r0109*O;055rr1061rwr65r107#X2wrrrqr370<wr65q<.&9re10r92r27rq:qqr8<",
" *881wr44rwr36rr100*O:043rr:065r0r650<00#O2er08rr59r7wr550<X&7re:0r02e37r9:qrr9:",
" *891wr65rwq58r0106*O=r65r05083rrr55r108#o10w71rr26rrwr66e,O&7rw:0r02e37rq1qrr9<",
" *891wr66rw10rr0=09*X:046w=rr85rrr650<00#X2qr72rr26rwwwer0<X$7rw10r02r37rq:qrrq;",
" *891wr66rw10r01ww6*O=w56w:wr61rrr92r<08#O10r71rr16rwwrerq<O$7r020r9<r36rq:qrr9<",
" *80=rw66rr10r0:wr6* =q550;0r0830r650<00#O1ew73w48wrrr40eq<X*8wq10r92w37rq1qrr9;",
" *804wr66r020r01wr4*O=q5802rrr0:rr62r200#X20r73w<0r07r<7r02X$7rq10r0;w36rq:qrrq;",
" *88:wr45r020r01wr8*O:q46020rr010r550,00#X1qr73w10r0<w<9rq<X$8rq10rq4q40q61qqr9<",
" *88:wr66rr20001wr8*o:q45020rr01rr95r209$X1qq72e10r8<q37qq<.*8rq;qqwq;qr7;2qqrq<",
"X*881wr66r010r0:qe9$X<qwq020ww0:rr650:00#.2wr73w10r0205000,X&8rw:0rrq1wr01w2qwq;",
" *001wr66rr<8r0:er9$ ;qqrq<erw01rr55r208#X10w73w10w02r:0r02X&7r010rw010r91r17r7<",
" *801qr46r6900786e9&o<qqq4960r0:0r850;00#X2wr72w<0r02000rw1X$7rw:0rwq10r71w1qrq<",
" *801wr5601wr73r;q9&X<qr71r10r0:rr45r509#O10r73w<0w02000r02X$9rw10rrq10r71e17r7<",
" *881rr56w10r72r;q9&X<0r73w19r0100520rr8#X1wr72r<0r0:060r0<X*8qq10qre<wr71q37r7;",
".%801qr76020r73q<99&X<0r71w20r0:r2802r08$o20r73r<0r05000ee<X$7rq10rq010r81q10rq<",
".*801qr26w10r73w;q9$X<qr71w10r8<r5901rr8#.1q47ww:0r82r50rq<X*8rq10rwe<0r71w17rq<",
" *882rr66w20r82w<q9&.;q77040600202001008&X1q35r0<0r01018eq<X$8rq10rr010r7:r10r0;",
" *80;rr63q:qr73r1q9&X<e65q;r560<r60010r0#O2w37ww<qrq1w27rq2O&7ww10rrw;0r97e1qr9<",
" *08:0068q1qr72w;q7&X,w65w<e57w3060060r0# 1w26rw<9r9<w17eq,O&7r937www28weew17r9<",
" *802020rq10r72q<q7&o<w35w<w36rwr160rr06&X2036rr;qr91w17rq<X$80:w17rwe27rew;7rq;",
" %801r:8r01qrq82qe7&o<q35w1r36rrr29rr0r9#X2r38r0:7r91e<7rq<X$801w37rwe17rrq3qr9;",
".*801r10rw1qwr01rr7&o<q66w;q37rwr2800rr0#.2049rw;qr72r17ee<X$80:e37eer17rer<7rq<",
"X*801r18r010rq01wr7&o,q64w;q37rwr30rrr09#X20260867q82r17re<X$80:e37eee37rw76qr0;",
" *802r10rw10wr01wr7&.<q339:0340001600006%X1r5601r16q2e59re2o$8q;r37rer17qq:qrrq<",
" *8010:8r01wwr01wr7&o,<<,<<<<<,,<<<,2,<2@X103601w378<eeeee<o$89:q27rer37rq3qwr7;",
" *881r18r010rr03wr9& .oo. o...XX.X.X..X..O2e37q:e2902wwer0,X&801w28rqr28r01qwr0<",
" *805r10r01rrr01wr9%X=***=*********=****+.2w37q:r379<eweew2X&701w37qwr17rq:qrr0<",
" *861010r0400r0:0r8&o2706377900926081007$.1q3783r37q66qrew<O$80:w27rwr27r0:qwr0<",
" *805016r010rr0:0w0&o<qr93rrreqr<0r020r6%X2077q:r36rq<qer0<X$80<q27rwr17rq:qwr0;",
" *881r18r030rr01er9&X1wr71rqr72w:0r01rr8%X20rr01e36rq<qee02X$80:w37rwr18rq1qwr0<",
"X*80:r1001r10r0:wr7&X1qr71rqw72w:0081rr0%X50qr01e27rq<e65e,X$80:w27wwr17rq:qwr0<",
" *6q0r1801r10r0:0r7&X10r71rrr72r10r02008*O10wr01e36rq<q55w<O$801e29r0r17rq1qwr0:",
" *8rrr1001020r0:wr8&X<wr81rqr72w00r02r08#o20wr01e37eq<q55q<X$80:e29rrr18rq:qwr01",
".*8rrr1801r10r06800&.,0r03rr065rr0r02rr0#o20rr0:w27rw1w55q<O&7q;w37rwr17rq;qqrq<",
"X*8wr01801r38r0r100&X1rr81rrr85r0rr02008#o1www01q26r02055q,O&9q<q37rww37rq:qrr7<",
" *8w0r1081010rrr;00#X<0r8:r0r04010r0rrr0#o1w230:w37rwrr55q<X$89;w37r010rqq3qqr9;",
" *005r1801r10rr0107*X,0r8:rr081r06005000#X<w37q:w36reer55q<X$7q;r17rw<0rqq:qrrq<",
" *081r1001r20r0r100#O=0r00r6000r0<6820r0#o1w36q;w26reer55e,O$8q767qrq<qrrq86qr0;",
" *001r1001r:8rrw100*O:wr0rr;0rrrr2802008$o1w360;w26wwer5501X$8rq;qwqq<qqqrr:8r0<",
" *80:r2902r:8rr0:00*X:0rrr060rr0r28020r0#o1q36q<w37rwww55w<o$8rq:0qrq<qqerr10r0<",
" *801w190:r:0rrr=00*X;0rr010rr0202001r00#o2w360<w36rwwr35w<o$7rw30rqw;qrqee19r0;",
" *001w180<020rrr100&.<qeqq<wwr0;e27w0rr9#X1e360:q27qqwwqeq,X&9rq3qrrw<0ewee17r0<",
" *801w0690r040r0100&o<qqqq<qwe0:e26wwww9#X1e36q:q37rqrqrqe<X&7rq37www<qrwer20r0;",
" *081wr66rrr14rr100& <qewq;qwr0;w90rrwr6#X2e340:q17rqwrree2X$7rq;7rww<0rrre10r0<",
" *004wr44rrr660r108&o<qwqq<wrr03w0e00rr9#X1w67w1w760ww0wr92O$7r93qqq0<0w0rr<0r0<",
"X*8rwwr65rrwr73w:09&.<w36e<ewwrqr370<ee7#o1wwe01rr41rr18re2X$8q:wr63q;w33rr20r0;",
" *8rwrr36rwwr75w:09&X<w55010wrqrr2781er7&o1qwr0:0082rw19r0<X$70;wr55r1w36re30w0<",
" *8ww6w65rrrr72w:00$X<w66w<wrqrqr3783wr7#o2qwr01rr65r0<8re1X$801wr65w1w33re20w0<",
" *8ww=064rq0r75r109&o,q5701wwrrrw270<we7#X2wwe01rr66r960r0<o$80:wr62e;w46re10r0;",
" *8ww:066rwwr72r<w8&X<053q10r00rr399<er7$o1qrr010r05r:0rr02O$8q:w07605046rr20r0<",
" *8r01w66wwwr95w108$X1q74q2qr81rr3692ee7#o2qqq0:rr85020rr0<O$80;r270:rr64r010r0<",
" *8w0:0rqw0rwwee;09&X<w54q10w73rr3601er7#o1qrr0:rr00r20rr0< $70;w2901rr50rr20r0<",
" *8rw100rrrrwwww:07#X<w43q10r73re1701qr9#o2qqr0100rr020rr02O$001w27050r66r010r0<",
"X=69515886848676376$X1058010r81rr2902rr7#o2qrr0:rrrw010rr0,X*80<w290<0r45rr20r0<",
" ***********&&$&$$&@.<w64010r83rr29010w7#o1qrr01rrrr010rr01O$801w5004rr64r020r01",
" .XXXOXX.XOXXXoXoXooX<0640<0r81rr29010r0$X1800710000028008:X$801r27rr0r56r060r01",
" =:2=222=32212222<2=X<r64020r63r02902r07$X1:::111:111111311X$70<r26rwrr960200r02"
};
