/* XPM */
static char *character_sprite_resized[] = {
/* columns rows colors chars-per-pixel */
"80 80 227 2 ",
"   c #352C2B",
".  c #382E2E",
"X  c #3A312E",
"o  c #3A2F31",
"O  c #3C3332",
"+  c #3F3A38",
"@  c #423737",
"#  c #443A3B",
"$  c #493B3B",
"%  c #4D403F",
"&  c #4D4243",
"*  c #4E4648",
"=  c #4F4949",
"-  c #524644",
";  c #544747",
":  c #5B4A45",
">  c #544B4C",
",  c #5B4D4D",
"<  c #5A5048",
"1  c #5C514C",
"2  c #554D51",
"3  c #5C4E51",
"4  c #575151",
"5  c #5B5253",
"6  c #5F5857",
"7  c #5E5659",
"8  c #5E5A5B",
"9  c #614E49",
"0  c #64514C",
"q  c #6B534F",
"w  c #6B574D",
"e  c #625554",
"r  c #655956",
"t  c #6A5855",
"y  c #625559",
"u  c #645B5C",
"i  c #6A5D5C",
"p  c #745D55",
"a  c #785E57",
"s  c #72614F",
"d  c #6C615E",
"f  c #73625D",
"g  c #7C6459",
"h  c #645C61",
"j  c #6A5E62",
"k  c #6B5B65",
"l  c #725E68",
"z  c #656165",
"x  c #6C6264",
"c  c #676469",
"v  c #6C666B",
"b  c #6E696D",
"n  c #716564",
"m  c #7A6764",
"M  c #73656B",
"N  c #756B6C",
"B  c #7A6E6E",
"V  c #7E706E",
"C  c #6E6B70",
"Z  c #736D73",
"A  c #776A75",
"S  c #7A6C73",
"D  c #757074",
"F  c #7D7273",
"G  c #76737A",
"H  c #7B757B",
"J  c #7E797D",
"K  c #8E5D57",
"L  c #856658",
"P  c #836A5D",
"I  c #8B6B5B",
"U  c #9C615D",
"Y  c #946B5D",
"T  c #89705D",
"R  c #A4675D",
"E  c #A4695D",
"W  c #846C63",
"Q  c #8B6F62",
"!  c #8F676C",
"~  c #887166",
"^  c #8A726B",
"/  c #927364",
"(  c #997A67",
")  c #817476",
"_  c #8B7876",
"`  c #81757C",
"'  c #837B7D",
"]  c #967C77",
"[  c #A46B60",
"{  c #A77966",
"}  c #B47766",
"|  c #B77B68",
" . c #BA7E69",
".. c #9C826E",
"X. c #85817F",
"o. c #9A8177",
"O. c #A9826B",
"+. c #B4846B",
"@. c #BD816C",
"#. c #BB8A6E",
"$. c #A38472",
"%. c #AD8773",
"&. c #AA8A7A",
"*. c #B48973",
"=. c #BB8C73",
"-. c #BC927A",
";. c #C18C6F",
":. c #C38672",
">. c #C68C73",
",. c #C98C73",
"<. c #CE9374",
"1. c #C49379",
"2. c #C79478",
"3. c #CC9A7C",
"4. c #D09576",
"5. c #D29678",
"6. c #D59A7B",
"7. c #D99D7E",
"8. c #DAA07F",
"9. c #7C7681",
"0. c #7E7A82",
"q. c #827D83",
"w. c #8A7D83",
"e. c #837E88",
"r. c #8B7D88",
"t. c #957F95",
"y. c #858085",
"u. c #8B8384",
"i. c #85828B",
"p. c #8B858B",
"a. c #8D888B",
"s. c #928486",
"d. c #9D8281",
"f. c #91858A",
"g. c #938B8D",
"h. c #9A8C8D",
"j. c #9A9285",
"k. c #8C8691",
"l. c #8E8A92",
"z. c #958692",
"x. c #928D94",
"c. c #9B8F93",
"v. c #948E9A",
"b. c #919096",
"n. c #9C9394",
"m. c #95929B",
"M. c #9B939B",
"N. c #A68C87",
"B. c #AA9589",
"V. c #B39787",
"C. c #B29B8C",
"Z. c #A39595",
"A. c #A69896",
"S. c #AB9A94",
"D. c #A3969B",
"F. c #A49A9B",
"G. c #AC9C9B",
"H. c #B49E97",
"J. c #AEA28F",
"K. c #ACA199",
"L. c #B3A19C",
"P. c #BAA39E",
"I. c #9793A0",
"U. c #9A97A2",
"Y. c #9B98A2",
"T. c #A39BA4",
"R. c #A69BA8",
"E. c #AE9DB4",
"W. c #ACA2A2",
"Q. c #ABA4A9",
"!. c #B4A4A4",
"~. c #B6A8A7",
"^. c #B4ABAC",
"/. c #BCACAB",
"(. c #ACA4B2",
"). c #AFA8B8",
"_. c #B5ACB6",
"`. c #BCAFBB",
"'. c #BAB1B8",
"]. c #C49C84",
"[. c #CC9D83",
"{. c #D39D80",
"}. c #DA9F80",
"|. c #C7A289",
" X c #D4A284",
".X c #DDA283",
"XX c #DAA688",
"oX c #DDA989",
"OX c #D1AD98",
"+X c #DCB39C",
"@X c #E1A686",
"#X c #E3A887",
"$X c #E2A688",
"%X c #E3A889",
"&X c #E2B396",
"*X c #C5AEA4",
"=X c #C9B2A1",
"-X c #C5B4AE",
";X c #D9BDAA",
":X c #C5B6B6",
">X c #D1BEB9",
",X c #E2BAA2",
"<X c #D9C4BC",
"1X c #E5C9B7",
"2X c #BCB6C5",
"3X c #C6BAC6",
"4X c #C9BDCA",
"5X c #CBC1CC",
"6X c #D9C6C8",
"7X c #CDC5D5",
"8X c #D5CBD5",
"9X c #D8CCD5",
"0X c #D6CCDB",
"qX c #D5D0DC",
"wX c #ECD5CE",
"eX c #EAD4D7",
"rX c #E8D6D8",
"tX c #F3E0DD",
"yX c #DACEE0",
"uX c #DDD7E7",
"iX c #E7D9E1",
"pX c #ECE2EA",
"aX c #F2E7E9",
"sX c #EAE7F4",
"dX c #F3ECF5",
"fX c #F3F4FD",
"gX c #F6FEFF",
/* pixels */
"U @.7.@X$X$X4.7.#X#X$X4.}.%X%X%X#X#X7. .R ,.8.6.5..X<.@X%X7.4.#X#X5.7.}.4.$X$X6.} U R R U E R R R R R R R R R R R R R U | }..X<.@X#X%X7.5.@X%X6.6.7.4.@X%X%X@X<.",
"U :.7.#X$X@X4.7.%X#X@X4.}.%X%X%X#X#X7. .R ,.@X6.7..X5..X#X7.4.%X#X5.7.}.4.$X$X6.| E :.:.>.>.:.>.{ +.:.>.:.,.:.:.:.:.:.R  .6..X<.@X@X%X.X5.#X#X6.6.@X,.@X%X%X8.<.",
"R @.7.@X@X$X<.7.#X%X@X5.}.%X%X%X#X#X7. .R ,.8.6.6.@X<.@X#X7.5.%X#X5.7.}.4.$X%X6.| E ,.7.7.6.4.*.d P <.4.}.}.4.5.7.7.,.R  .6.#X X6..X$X.X4.@X#X6.5.@X4.@X#X#X8.<.",
"U @.7.#X@X7.7.7..X%X$X5.}.%X@X7.@X@X7. .R ,.@X5.*.>.<.@X%X7.5.%X%X4.7.}.4.$X$X6.| E <.@X#X7.>.W d p ,.4.%X%X4.}.%X@X,.R  .7.#X@X<..X%X}.4.@X#X5.6.}.,.@X#X#X8.<.",
"U @.}.$X.X<..X7.6.%X$X4.}.%X@X4.@X#X7. .R ,.@X5.! M ( 6.@X.X6.}.%X5.7..X5.$X$X}.} E <..X#X1.P n n p 2.5.#X#X4.}.%X.X>.E  .7.#X@X<.8.%X.X5.@X$X7.6..X5.}.$X%X@X,.",
"U @.}.%X.X<..X5.5.$X$X4.}.%X7.4.@X#X7. .R ,..X5./ Z Z ^ *..X}.4.oX<.5.3.>.[.[.=.{ U #.<.( f x n i t >.5.%X@X<.}.%X.X>.E  .7.#X@X4.8.%X.X4.@X$X5.6.$X@X4..X%X8.,.",
"U @.}.%X$X<..X5.6.%X$X4..X%X@X<.@X$X7. .R ,..X7.{ Z S Z v p L L Q o.L._.`.).T.H x r 0 0 0 u x n i 0 >.6.%X@X5.}.%X@X,.E  .7.#X@X4..X#X.X4.@X#X7.6.%X$X4.}.%X.X<.",
"U @.7.$X.X5..X$X.X%X%X4.7.#X7.4.@X#X7. .R ,..X5.*.S S S M y 2 2 h (.sXsXdXsX4XT.q.x e 5 t i d i y 0 #.5.%X$X4.7.%X.X,.E  .6.#X@X<..X%X8.4.@X$X6.6.$X$X5.}.%X.X,.",
"U @.8.%X@X<..X#X%X%X$X4.}.%X.X4.@X%X6. .[ ,..X7.<.) A A M k y k A 4XfXgXgXfXuX'.m.y.M i i i i u e : >.@X$X$X5.7.#X@X,.R  .7.$X@X<..X#X.X5.@X$X6.6.$X$X<..X#X7.4.",
"U @.7.#X.X4..X.X.X%X$X4.}.@X7.5..X@X7. .R ,..X5.6.$.N N j u u k F 4XgXgXgXfXuX).Y.b.J M M i r r 5 : >.%X#X$X<.7.#X.X,.R  .7.$X7.6.7.@X8.4.@X.X7.7.$X$X5.}.#X.X,.",
"U @.7.#X@X<..X6.6.%X%X4.}.7.5.@X4..X6. .R ,..X6.6.-.M M j h k h A 4XfXfXgXdX0XT.' J u.' B n t r e : ,.%X#X$X6.}.#X}.,.[  .7..X<..X5.7.}.5.@X5.7.$X%X$X<..X#X7.<.",
"U @.7.#X@X<.@X5.6.%X@X4..X7.5.@X<..X7. .R ,..X6.6.3.m j u y 2 $ ; ^.sXfXfXsX2XC = = d ) ) N n i 0 : ,.%X#X%X%X@X#X@X,.[  .7.8.<.@X5.7.$X@X$X5.7.%X%X@X5..X#X.X<.",
"U @.6.#X.X<..X6.6.%X@X4.7.7.4.@X4..X7. .R ,..X6.6. Xm i k ; @     A uXsXsXsX).2 + O % n ` ) ) B i : #..X5.$X%X7.7..X,.[  .7.8.<.$X5.6.%X$X%X4.7.%X%X$X5.}.#X.X,.",
"U @.8.#X@X<.@X5.6.%X$X4..X7.4.@X4.}.7. .R ,.}.5.5.@XQ e 3 ; @ @ o k yXuXuXuX).7 # @ > F s.w.s.s.F 0 =..X<.$X%X6.5.@X,.R  .7.8.<..X5.}.$X$X%X4.7.%X%X@X5..X#X.X<.",
"U @.6.#XoX4..X6.6.$X$X<.8.7.5.@X4..X6. .[ >..X6.6.$X/ 3 3 y & & 7 r.5X4X3X3X2XR.b.g.M.~.T.h.c.D.u.e =..X<.$X%X5.6.@X,.R  .7.8.4.$X5.7.%X#X$X<.7.$X#X@X5.}.%X.X<.",
"U @.8.#X.X<..X6.6.$X@X4.8.7.5.@X4.}.}. .R >..X6.6.$X/ > 3 l t.U.`.4X_.z.z.T.3X0X9X9X7X3X!.c.h.D.s.e +..X4.$X%X6.5..X,.R  .7.7.<..X5.6..X@X@X5.7.@X.X}.<.7..X7.,.",
"U @.8.#X8.<.8.6.6.$X$X5.}.7.5.@X4..X7. .R ,..X5.6.%X( ; 3 S 2X0XyX0XE.A M h.4X8XqX9X5X5X^.F.j.F.X.: +..X5..X#X6.6..X,.[  .,.,.,.,.,.,.,.,.,.,.,.,.,.,.,.,.,.,.,.",
"U @.7.#X#X4.8.6.6.%X$X@X6.6.@X@X4..X6. .R >..X5.6.%XO.; u r.2X7X7X4XR.l k r.`.3X5X5X3X'.'.^.K.K.F - O.#X.X#X#X6.6..X,.[ R R R R R R [ R [ [ R R [ R R R R R R R ",
"U +.6.#X@X4.8.7.5.%X#X%X5.6.#X$X<.}.7. .E ,..X5.5.%X=.e A c._.3X2XE.t.l q l t.D.~.'.'._.^.^.^.K.) % / 8.6.#X#X5.6..X,.R }  . . . . . . . . . . . . . .|  .}  . .",
"U @.7.#X@X4.8.6.6.%X%X%X5.6.%X@X4..X7. .E ,..X6.7.%X7.f ` T.).).E.t.! l k k l w.z.F.Q.Q.^.^.^.W.) % Y 8.4..X#X6.5..X,.R | 5.{.}.<.5.}.6.<.5.<.5.}.6.,.6.7.7.5.<.",
"U @.8.#X8.<.8.7.6.%X$X#X5.7.$X@X<..X7. .U ,..X6.6.%X.X^ k.Y.(.(.I.t.A A ) ) A ) u.f.n.D.Q.Q.^.W.V % L 8.<.#X#X6.6.}.,.R  .}.$X.X<..X%X}.<.$X4.}.$X.X<.@X$X#X@X,.",
"U :.7.#X@X4.8.6.7.%X#X#X5.7.#X@X<..X7. .E >..X6.6.%X.Xo.z.R.).(.I.t.r.q.` ` q.` ' u.g.n.M.W.K.Y.V < L 8.<.#X#X6.6.@X,.R | }.$X@X4.}.%X}.5.@X4.}.$X.X<..X%X%X7.,.",
"U  .8.8.6.8.#X7.5.#X#X#X5.7.#X@X4.8.7. .E ,..X3.6.%X$X%.z.R.(.Q.v.t.r.` ` ` H H ' y.f.n.n.K.K.n.N % L 8.<..X#X6.5.@X,.R  .6.$X$X,..X$X}.,.$X4.}.$X.X4.@X#X%X.X<.",
"U @.7.8.4.#X#X5.6.#X#X#X5.5.$X@X4..X6.+.E ,..X5.6.%X@X%.s.R.(.R.v.r.r.q.` H H H ' ' u.g.n.n.M.a.d % s 8.<.#X#X6.6.}.,.R | }.$X$X4.@X%X}.5.$X4.}.%X@X<.@X%X%X.X<.",
"U @.6.8.4.8.#X7.7.#X#X#X5.7.@X@X4.@X7. .R >..X5.6.%X$X%.` v.Q.R.v.k.r.q.H H H H H q.y.a.g.g.g.N 1 - s 8.8.#X#X3.5..X,.R | }.$X.X<..X#X}.5.$X4.}.#X@X4.@X%X%X7.<.",
"U @.7.8.6.#X#X7.5.#X#X8.7.8.#X@X<.8.6. .R >..X6.6.$X.X{ n r.T.T.v.k.e.q.H F H S H ' y.p.g.g.u.x 1 - w 8.#X#X#X8.}..X,.[  .6.$X$X<..X%X}.<.$X5.}.#X8.<.@X%X%X7.,.",
"U @.7.8.4.8.#X6.6.#X#X5.8.%X$X.X4..X7. .R >.}.6.6.@X;.T i A v.T.v.l.i.q.9.H H H J J y.p.p.u.F u 2 > < &.#X#XoXoX%X.X,.[  .7.%X@X5..X$X}.5.@X4.}.#X@X4.8.%X%X.X<.",
"U @.7.8.6.8.#X7.6.#X#X4.8.#X.X5.@X#X7.+.{ =.[.3.3.|.$.f i M p.v.z.k.i.e.q.0.q.9.J ' y.p.u.' M 5 > > < ) |.XXXXXXoXXX1.{ =.XX+X,X;X*XH.].4.@X4.}.#X@X4.#X%X%X7.<.",
"U :.7.8.<.8.#X8.6.%X$X<..X$X8.4.@X@X2.&.B.V.V.B.B.N.t.! W M q.z.k.k.i.0.r.e.e.r.y.q.y.y.y.D d 4 > > < u F X.&.J.J.K.~./.-X-X:X:X/.H.N.d.,.@X5.7.#X.X4.@X#X%X@X,.",
"U @.8.8.6.8.8.7.6.%X$X<..X$X.X4.@X@X-.&.&.&.&.] ( ] _ _ S A S H 0.0.0.0.q.p.k.k.p.i.q.J b 8 4 4 > > > 5 6 z D X.l.M.K.K.L.G.Z.h.d.] _ ^ :.#X5.7.#X@X4..X#X#X.X<.",
"U @.6.8.4.8.%X8.6.%X$X5..X%X.X<.@X#X6.O./ Q P g p p f l l l v C G G G 9.e.k.v.v.l.k.0.D 8 2 2 > > = & & % < d C J u.a.u.s.w.) m l a a a | 8.6.8.@X7.<.@X#X#X7.,.",
"U | 8.8.4.8.%X8.6.%X$X<.7.$X.X<.@X#X6.@.E +.Y w 0 0 e e e y h c c C Z G e.v.I.I.m.l.q.D z 8 5 > = % # @ + % > d n C N N N M i r t q q a <.5.8.$X7.,.<..X@X$X@X<.",
"U @.7.8.4.@X%X6.6.%X$X4..X%X8.<.@X%X7. .R ,.6.{ 0 9 9 0 3 5 8 d z c C G i.m.U.U.m.b.y.D c z 8 4 = + X X O % = 4 6 u u u i x i i p a ! ,..X<.@X%X}.4..X5.8.%X@X<.",
"U @.8.8.4.@X%X6.6.$X@X<.8.%X8.4.@X%X7. .R >.@X@X[ 9 9 9 & = = 4 8 z C 9.i.m.U.U.Y.b.i.G c 8 8 4 > + X   . # * > 1 5 5 u m ( $.%.| <..X#X.X5.XX%X7.4.@X4..X%X7.<.",
"U @.7.8.4.@X%X6.6.@X7.7.@X@X6.7.7.@X7. .R >.@X#X7.L $ $ $ $ & = 4 8 C G i.m.U.U.M.b.i.H c 8 4 8 4 & X   . + = 4 5 n / U +.6.#X.X4.8.%X%X.X<..X%X7.4..X5.8.%X8.<.",
"U @.7.7.4.@X%X6.6..X4.@X#X6.6..X4.}.6. .R ,.#X#X7.;.w $ $ # $ & = h C G i.b.m.m.m.l.i.H b 8 4 4 8 4 & % % = 4 f $.[.,.R  .7.%X#X<.@X%X%XoX<..X%X7.5..X<.8.#X8.<.",
"U @.7.8.4.@X#X6.6..X<.@X%X7.5.@X,.7.7. .R ,.8.#X7.6.+.- & & & * = z C G i.l.b.b.x.l.i.H n 4 = 4 8 8 u 5 4 h ^ 3.#X@X,.R  .7.#X@X4.8.#X#X@X<.@X#X7.4.@X<..X$X.X<.",
"U @.7.8.4.@X#X6.6..X<..X%X7.5.@X4.@X7. .R ,.8.#X8.4.8.L 5 , ; > 2 8 G 0.i.b.b.b.l.p.p.J c 4 = < 6 6 6 8 x &..X@X#X@X,.E  .7.#X@X4.8.#X%X@X4.}.#X7.4..X<..X#X8.,.",
"U @.7.8.4.@X%X5.5..X4.XX%X7.5..X<..X}. .E ,.@X#X8.4.#X+.i r 5 2 4 c G y.i.b.l.b.l.p.i.X.b 4 = = = = 2 d %.@X6.8.#X.X,.E  .6.#X@X<.8.$X$X.X,.@X$X7.4.@X4.7.%X.X<.",
"U @.7.8.4.#X%X7.6..X4.@X%X7.5.@X<.}.}. .E ,.8.8.7.8.6.3.g e 5 2 8 C G i.l.l.l.b.l.a.p.i.D 6 4 = = & 6 *.4.@X<.7.%X.X,.E  .7.#X@X<.@X#X$X@X4.@X#X7.4.@X<..X#X.X,.",
"U @.7.8.4.#X#X6.6.8.4.#X#X7.5.$X<..X{. .R ,..X6.6.@X<.}.Q r 3 3 8 Z 0.i.i.k.b.v.k.i.k.i.J d 4 < = , | .X5..X<.}.#X.X,.R  .7.%X@X4.@X$X#X@X<.8.#X7.7..X4.8.%X7.,.",
"U @.7.8.<.#X8.6.7.@X<.8.%X7.5.@X4..X}. .R ,.@X6.5.@X4.7.Q e 3 3 h G i.i.i.k.l.v.l.l.p.k.X.n 6 5 3 W XX.X<.@X<.7.%X.X,.[  .7.$X.X5.7.@X#X@X5.8.@X#X#X@X4.@X%X7.<.",
"U @.7.8.<.@X6.8.#X.X<.@X#X7.6..X4.@X}. .R ,..X5.6..X4..XL 3 3 3 z 9.i.i.i.i.k.b.l.a.p.a.X.d d 6 i =.%X.X<..X<.}.%X.X,.[  .7..X<..X4.7.$X$X$X4.7.#X#X@X4.7.%X@X<.",
"U  .7.8.4.@X4.7.#X.X<.@X%X#X7.4.}.$X6. .R ,.@X6.6..X4.8.P 9 3 3 z G i.i.i.i.i.b.l.u.u.a.X.n d d / .X$X.X<.@X<.7.%X@X,.R  .7.8.<.@X4.7.$X$X$X4.7.#X#X#X5.8.%X7.,.",
"U @.7.8.4.@X4.7.%X@X<..X#X#X.X<.#X%X6. .R ,.@X6.7.@X4.8.P : , 3 8 C e.i.i.i.l.l.l.i.u.a.X.F n d ..8.#X8.<..X5.}.#X.X,.E  .7.7.4.@X5.7.$X#X$X4.}.%X#X$X4.7.%X@X<.",
"U @.7.8.4.@X4.7.%X.X<.@X%X#X.X4.@X#X7. .R ,.@X6.5.8.<.7.L ; ; 3 7 c 9.i.l.i.i.i.a.i.u.a.u.F n d O.8..X8.5.@X5.}.%X8.<.R  .7.7.4.@X5.7.$X#X$X5.7.%X#X7.7.#X%X7.4.",
"U @.7.8.4.@X4.7.%X.X<.@X#X%X.X4.@X%X7. .R ,.7.5.4.7.,.7.I ; , 3 7 z C 0.i.i.i.i.i.a.u.a.u.J n d *.5.7.8.5.@X7..X%X@X,.R @.7.8.4.@X5.}.%X#X$X4.7.#X.X5..X#X%X8.,.",
"U @.7.8.4.@X5.7.#X.X4..X%X%X}.4.#X%X6.| R :.,.,.,.,.,.,.I : , , 7 h C 0.i.i.i.i.i.y.i.a.X.F n d &.4.7..X<.@X@X%X%X.X,.R @.7.7.4.@X5.7.%X#X$X5.7.%X.X4.@X#X#X8.<.",
"U @.6.8.4.@X4.7.#X@X<.8.#X%X@X4.@X%X}. .U R R R R R R R K - , 5 7 h c 9.e.i.i.y.i.X.X.a.X.F d d $.5.8.8.4.@X@X%X%X.X,.[  .7.}.<..X5.7.%X%X$X5.7.#X.X4..X#X%X@X,.",
"U :.7.8.4.@X4.7.#X8.4.@X#X#X8.4..X%X6. .R  .@.@.@.@.@.@.Y 9 , e 7 h C 9.i.i.e.i.y.y.y.X.X.F d d ..6.7.8.<.$X#X%X%X.X,.[  .7..X<.@X5.7.%X%X$X5.7.#X@X<.@X%X%X.X<.",
"U @.7.8.4.@X5.8.%X@X4.8.%X#X.X<.@X%X7. .[ ,.6.}.6.<.7.8.*.0 9 e 7 h C 9.0.i.i.e.y.q.J J H B d d ( 5.7.@X7.6.@X%X%X.X,.[  .7..X<..X5.7.#X%X#X5.7.#X@X<.@X#X%X8.,.",
"U @.7.8.4.@X5.7.%X@X<.@X#X#X.X<..X%X7. .[ ,.@X%X}.5.%X%X}.a 3 e 7 7 k G 0.e.y.y.0.J G D F n d s ( 4.6.#X.X<..X%X%X.X,.[  .7.8.<..X5.7.#X#X$X4.7.#X8.4..X#X#X8.<.",
"U @.7.8.<.#X5.7.#X7.5.}.@X%X.X<.@X@X7. .R ,.@X%X7.5.#X#X@XY 3 e y 7 k b G 0.e.q.0.G D C c d 6 0 Q 2.6.#X.X<.@X@X#X8.,.R  .7.8.<..X5.7.#X#X$X5.7.#X@X4.@X#X#X.X<.",
"U @.7.8.4.@X5.8.7.5.@X4..X%X8.<.@X%X7. .R ,..X%X7.5.$X#X$X{ e e y y k l Z 9.q.e.0.G b x d d < < g <.7.#X@X<..X6.7.8.,.R  .7.8.<.@X5.7.$X#X@X5.7.#X.X4.8.#X#X8.<.",
"U @.7.@X8.#X4.7.}.5.@X<.8.%X.X<.@X#X7. .R ,..X#X7.4.$X#X%X%.r u h h h v Z H 0.q.0.C z d d 1 w % s #.8.#X@X,.@X6.6.8.,.R :.7.8.4.@X5.7.%X%X$X4.7.%X@X<.@X#X%X.X,.",
"U @.7.#X#X#X4.7.}.5.@X5..X#X7.4.@X#X7.@.R ,.@X%X7.5.$X$X%X=.i i h h k v D H q.q.0.b d 8 6 6 0 < s #.7.#X@X<.@X5.6.@X,.R | 7.8.<.@X5.7.%X#X$X4.8.%X@X4..X#X#X.X<.",
"U @.7.#X#X#X4.}.}.5.@X4.7.%X@X6.7.$X7. .R ,..X#X7.4.@X%X%X-.p j j x v x D H J y.0.b u 6 u u e < w +.7.#X@X<.@X5.6..X,.[  .7..X<.@X5.7.#X#X$X5.7.#X@X4.@X#X$X7.,.",
"U @.7.#X#X#X4.7.7.5.@X4.8.#X#X@X<..X7. .R ,.@X%X8.4.#X%X%X2.f i j n x v N H q.q.q.H x z M x d e w +.7.#X@X4.@X6.5..X,.[  .7.8.<.@X4.7.#X@X@X5.8.#X8.<.8.#X$X@X<.",
"U @.7.#X#X@X4.}.8.4.@X4..X%X#X@X<..X7. .R ,..X#X7.4.#X#X%X3.f j x n n M C H q.i.p.p.' ` J V N d s O.7.#X$X@X%X5.7..X,.R  .7..X<.@X4.7.#X@X4.8.#X#X@X4.@X#X#X.X<.",
"U @.7..X5.#X4.7.7.5.@X4.7.#X#X@X<..X7. .R ,.@X#X8.4.#X%X%X6.W j M N Z F J q.p.g.m.n.z.f.s.u.' ^ s ( 7.%X%X$X%X6.5..X,.R  .7.8.<.@X5.7.#X@X<..X#X$X@X4.@X%X#X7.<.",
"U @.8.8.4.@X4.}..X4.@X<..X%X#X@X<.8.7. .E >..X%X@X.X@X6..X.X~ x N ) ' w.u.a.h.n.D.D.Z.c.h.s.s.s._ ..8..X#X%X%X5.5..X,.R  .7.8.7.6.7.@X#X@X<.@X#X#X$X7.7.@X#X.X<.",
"U @.8.8.4.@X4.}.7.4.@X<.8.#X#X@X<.@X7. .E >.#X%X#X#X#X<..XoXo.Z ) s.g.g.h.n.n.F.R.D.D.Z.Z.Z.Z.h.h.N.3.oX#X#X%X6.5.@X,.R  .7.#X#X<..X$X$X.X<..X#X$X#X@X4..X%X8.<.",
"U @.7.8.4.oX5.6..X<.@X4..X%X%X.X<.8.7. .E >..X%X#X#X.X6..XoXB.w.s.h.n.n.Z.Z.F.K.L.G.A.A.Z.A.A.D.G.K.|.#X#X#X#X5.6..X<.R  .7.#X#X4..X%X%X@X<..X#X#X#X@X4.8.#X8.<.",
"U :.7..X<.#X<.}..X5.@X<.8.%X%X@X<.@X6. .E >..X#X#X.X4..X%X%X!.c.c.n.n.Z.Z.S.S.J.C.N.C.C.G.G.G.L.~.~.OX#X#X#X#X6.5.@X,.E  .7.#X#X4.}.$X$X@X<..X#X#X$X@X4..X#X8.,.",
"U @.7.8.4.#X4.7.}.4.@X4.}.%X%X@X<..X7. .R ,.8.#X#X8.<.@X@X%X-X/.G.F.F.F.S.C.|.{. .[ 2.|.J.S.K.!.~./.OX#X#X#X#X.X@X@X,.R  .7.#X@X4.8.#X#X@X<..X$X#X%X$X5.}.%X.X<.",
"U @.8.8.4.#X8.6.7..X$X}.6.}.@X@X<..X7. .R ,.@X#X#X@X<.@X$X$X>X:X~.L.F.G.S.|.$X}.} R <.@X3.V.K.!.^./.=XoX#X#X%X%X%X.X,.R  .7.#X@X4.8.$X#X@X<..X$X%X%X$X<..X%X8.,.",
"U :.6.8.4.#X#X6.6.%X%X%X6.6.#X@X4.}.7. .R ,.8.#X#X8.4.@X%X%X>X4X'.~.L.S.J.%X%X6.| E ,..X4.6.C.!.~./.=X%X#X%X%X%X%X@X<.R  .7.#X@X4.8.#X#X.X<..X%X$X#X@X5.}.%X.X<.",
"U #.7.8.6.#X#X6.6.%X%X%X6.7.@X@X4.@X7. .R ,.@X@X@X@X4.@X%X%X6X6X:X~.L.S.].%X%X6.| E <..X7.8.XXJ.~.-X=X.X#X#X.XoX$X.X,.R  .7.$X8.5.@X@X@X.X<..X@X@X%X@X<..X#X.X,.",
"U @.8.#X#X#X#X6.6.%X%X%X#X7.5.@X,.8.7. .R ,.@X6.{.$X<..X%X%X6X6X:X/.L.B.<.$X$X6. .E 1.@X%X%X.XV.!./.*X7.#X#X4.7.#X@X,.R @.7.7.4.@X$X7.7.@X<..X6.5.#X$X<..X#X8.<.",
"U @.7.#X#X#X#X5.5.%X%X%X#X7.5.@X<.@X7. .R ,.8.6.6.}.<.$X#X&XeXiX6X/.G.V.<.$X$X}. .E <..X%X%X.X1.!./.*X3.#X@X<.}.#X@X,.R @.7.8.4.@X$X5.5.@X<.8.6.7.#X$X5.8.#X8.<.",
"U @.7.#X@X6.@X6.7.%X#X#X#X7.5.@X<.8.8. .R ,.8.7.6..X4..X@X&XpXpXrX:XS.-.4.$X%X6.| E <.@X@X%X}.<.L.~.*X6.%X%X<..X#X@X,.R  .7.7.4.@X#X7.5.@X4.8.7.5.#X$X<..X#X@X,.",
"U @.7.#X@X,.@X6.5.%X#X#X#X7.5.@X<.8.7.@.R ,.@X5.6..X<.@X#X1XaXaXrX*XN.3.4.$X%X6.| R <..X#X%X.X4.].~./.{.oX}.6..X#X7.<.R  .7.7.4.$X%X7.5.8.4.8.6.7.$X$X5..X#X8.,.",
"U @.7.#X8.4.8.6.6.#X#X#X%X7.6.@X5.8.7. .R ,.8.6.6.@X<.@X%XwXdXaXeXH.-.6.<.$X%X6. .R ,.@X#X#X7.4. X!.P.7.$X,.@X%X%X$X,.R  .7.8.4.@X8.7.7.}.6.@X6.6.#X@X4..X#X.X4.",
"U @.8.#X@X<.@X7.6.@X#X#X%X7.6.@X4.7.7. .R ,.#X6.6.8.4.@X,XaXdXpX6XV.[.}.<.$X$X6. .R <.@X#X#X8.4.XX|.|.6.XX<.@X%X%X}.,.R  .7.8.5.@X5.7.7.4.@X@X6.6.#X$X<..X%X}.,.",
"U @.7.#X8.<..X@X#X#X#X#X%X$X@X@X4.8.7. .R ,.8.6.6.8.4.$X1XaXdXrX:X-.7.}.4.@X%X}.| R ,.@X#X#X8.4.@X%X.XoX.X<..X%X$X.X,.[  .7.8.4.@X5.7.8.4.@X%X5.6.%X$X<.7.%X.X<.",
"U @.8.#X@X4.@X%X#X#X#X#X#X#X$X@X4.8.7. .R ,.@X6.5.8.4.&XtXaXaX9X*X,.6.}.4.$X$X6. .R <.#X#X%X8.<.@X#X#X#XoX5..X%X%X.X,.[  .7.8.<.@X5.7.8.4.#X%X7.6.%X$X5..X%X}.<.",
"U @.6.}.6.,.6.7.7.7.7.6.7.6.7.5.4.5.5. .R ,.@X6.5..X<.,XtXaXrX<XOX4.6.}.4.@X%X7.| E ,.#X#X#X@X4..X%X#X#X.X<..X%X%X.X,.R @.7..X<.@X5.}.}.4.@X%X5.6.%X$X<..X%X.X,.",
"U }  . . . . . . . . .@. . . .@. . . .} R ,.8.6.6..X<.+XwXtX<XOXoX5.}.}.<.@X%X6.| E ,.@X#X#X8.4.@X%X#X#X@X<..X%X%X.X,.R  .7.8.<.@X5.7.@X7.@X%X6.6.%X$X<.}.%X.X,.",
"U [ R [ E [ R R R R E E R R E [ E R R R R ,..X6.6..X4.oX,X+X X%X$X5.}.}.4.$X#X6. .E ,..X8.8.7.<..X.X.X8.8.<.7..X@X7.,.R  .7.7.<.@X5.}.$X@X%X%X6.6.%X.X6..X%X.X<.",
"U  .,.,.,.>.,.>.>.>.,.,.,.,.,.,.,.,.,. .R ,..X6.5..X,..X$X}.4.%X$X6.6.}.<.$X@X6. .E ,.<.<.<.<.<.<.<.<.<.<.<.<.<.<.<.,.R  .7..X<..X5.6.$X%X%X$X6.6..X5..X$X%X.X,."
};
