/* XPM */
static char *colectible_sprite_resized[] = {
/* columns rows colors chars-per-pixel */
"80 80 241 2 ",
"   c #0C0504",
".  c #0E0807",
"X  c #0E0909",
"o  c #070506",
"O  c #140C0A",
"+  c #1B0D0C",
"@  c #190805",
"#  c #19100E",
"$  c #180F10",
"%  c #151112",
"&  c #1C1413",
"*  c #1E1919",
"=  c #0E0E10",
"-  c #250603",
";  c #2C0502",
":  c #290A07",
">  c #340D09",
",  c #3A0E0A",
"<  c #370904",
"1  c #23110F",
"2  c #2E140F",
"3  c #3B120D",
"4  c #251412",
"5  c #291413",
"6  c #2A1916",
"7  c #2C1C1A",
"8  c #241918",
"9  c #351C18",
"0  c #38221E",
"q  c #2F211E",
"w  c #2E1E20",
"e  c #2F2122",
"r  c #342323",
"t  c #3B2725",
"y  c #3E3F3E",
"u  c #520B03",
"i  c #4F160E",
"p  c #650A02",
"a  c #6A0F05",
"s  c #6D1106",
"d  c #6D1408",
"f  c #741206",
"g  c #44221C",
"h  c #5B251A",
"j  c #67281A",
"k  c #752310",
"l  c #482B27",
"z  c #562D25",
"x  c #48322D",
"c  c #55342D",
"v  c #59342C",
"b  c #493835",
"n  c #563B36",
"m  c #673429",
"M  c #79392A",
"N  c #6B3C33",
"B  c #663833",
"V  c #72382E",
"C  c #5A433C",
"Z  c #4D413F",
"A  c #6A473C",
"S  c #774339",
"D  c #78513E",
"F  c #574947",
"G  c #564D4B",
"H  c #644B44",
"J  c #684C48",
"K  c #774B42",
"L  c #64524B",
"P  c #6B534D",
"I  c #695045",
"U  c #7B5442",
"Y  c #7C5D4D",
"T  c #77534A",
"R  c #655A55",
"E  c #6C5C54",
"W  c #675955",
"Q  c #765C56",
"!  c #6D6059",
"~  c #79625A",
"^  c #776966",
"/  c #7D7876",
"(  c #716B67",
")  c #851C0A",
"_  c #901E0A",
"`  c #832A13",
"'  c #9E341A",
"]  c #B93514",
"[  c #A82C0E",
"{  c #843927",
"}  c #963C26",
"|  c #BA3E22",
" . c #C63A14",
".. c #CA3B15",
"X. c #C73B15",
"o. c #D23D15",
"O. c #C4340C",
"+. c #884636",
"@. c #964A37",
"#. c #914431",
"$. c #A6452C",
"%. c #AA4C34",
"&. c #B54D33",
"*. c #BB573D",
"=. c #B14C33",
"-. c #D54119",
";. c #C9421D",
":. c #DD522D",
">. c #C85537",
",. c #DC5937",
"<. c #D45B3C",
"1. c #DC5B39",
"2. c #D75534",
"3. c #C84D2D",
"4. c #E4522C",
"5. c #E25A36",
"6. c #E35C39",
"7. c #E85B36",
"8. c #F05E37",
"9. c #E8603D",
"0. c #F4633C",
"q. c #E14419",
"w. c #99584B",
"e. c #995E5C",
"r. c #995E51",
"t. c #885149",
"y. c #A75946",
"u. c #B75B44",
"i. c #8A634E",
"p. c #86614E",
"a. c #8B6451",
"s. c #8A655E",
"d. c #886657",
"f. c #9D6154",
"g. c #9E635B",
"h. c #946A57",
"j. c #996E58",
"k. c #A1635B",
"l. c #A06156",
"z. c #AF6853",
"x. c #8D6963",
"c. c #856863",
"v. c #956C65",
"b. c #86726D",
"n. c #887A76",
"m. c #98796E",
"M. c #B77D67",
"N. c #B97D67",
"B. c #B77D69",
"V. c #B97C69",
"C. c #B17465",
"Z. c #AF7365",
"A. c #9D5F60",
"S. c #C65D42",
"D. c #D96445",
"F. c #D46C51",
"G. c #EA6643",
"H. c #EB7150",
"J. c #D87D67",
"K. c #89817E",
"L. c #9C807A",
"P. c #BD816B",
"I. c #BB886D",
"U. c #A1857D",
"Y. c #B98774",
"T. c #C98E6F",
"R. c #C58C6D",
"E. c #CA906F",
"W. c #CA8E73",
"Q. c #C58A75",
"!. c #D78D78",
"~. c #CD9273",
"^. c #CC927A",
"/. c #D19576",
"(. c #D49877",
"). c #D29779",
"_. c #D4997A",
"`. c #DA9E7E",
"'. c #DC907B",
"]. c #D9826B",
"[. c #ED886C",
"{. c #DCA07F",
"}. c #8C8A89",
"|. c #978A87",
" X c #99918D",
".X c #949593",
"XX c #9C9693",
"oX c #9E9995",
"OX c #989A98",
"+X c #A58983",
"@X c #A58B84",
"#X c #A8928D",
"$X c #B4948B",
"%X c #A29D9A",
"&X c #A79893",
"*X c #B09D96",
"=X c #B4A39D",
"-X c #A4A5A2",
";X c #BBA9A3",
":X c #BCB9B4",
">X c #B6B2AD",
",X c #9FA09E",
"<X c #C49183",
"1X c #DB9F81",
"2X c #D79886",
"3X c #C38F80",
"4X c #DDA282",
"5X c #E1A585",
"6X c #E3A887",
"7X c #E3A789",
"8X c #E4A98A",
"9X c #EAAB8C",
"0X c #F4B592",
"qX c #C3B1AC",
"wX c #C7BBB6",
"eX c #D8B6AB",
"rX c #E99D88",
"tX c #C9C2BD",
"yX c #D4C4BD",
"uX c #CACAC5",
"iX c #CCCEC9",
"pX c #CBC6C1",
"aX c #D5CAC4",
"sX c #DACFC9",
"dX c #D7CAC4",
"fX c #CDD0CB",
"gX c #DCD1CB",
"hX c #D1D2CE",
"jX c #D6D9D4",
"kX c #D9DAD5",
"lX c #CED4D1",
"zX c #E1D5CE",
"xX c #E1D7D1",
"cX c #E3DAD3",
"vX c #EADFD8",
"bX c #E9DED7",
"nX c #E0CFC8",
"mX c #DEE1DB",
"MX c #ECE1DA",
"NX c #F0E5DE",
"BX c #EFE7E0",
/* pixels */
"g.Q._.7X5X6X~.`.8X6X8X~.4X8X7X6X8X8X`.M.k.W.7X).).8XZ.P.I.P.j.~ p.Y ~ ~ Y Y D A A L H H H H J H H C n K U j.k.k.k.g.g.e.B.`.4X~.6X6X8X4X^.6X8X_._.4X^.5X7X8X5XW.",
"e.P.`.7X7X6X~.`.8X6X6X^.1X8X7X6X5X8X{.M.l.W.7X).'.m.( ( ^ ! K.yXtXtX&X&X*XL.! ! b.&X&X&X*X&X&X#X;XsXaX/ ( ^ P.W.R.Q.Q.g.B.4X4XW.6X6X8X4X~.6X8X(.(.4XW.5X6X8X1XT.",
"e.V.`.7X5X8X~.`.8X6X8X~.4X8X6X8X8X8X`.N.l.W.5X(.(.L MXeX].[.].H.H.F.<.>.<.<.*.0 r 0 0 0 t 0 0 t l F b.}.*X! l.5X1X1XW.k.M.`.6X4X/.4X6X4X~.6X8X_._.5X~.4X6X8X5XT.",
"l.Q.`.7X5X{._._.4X8X8X~.4X8X4X1X5X9X`.M.A.W.5X_./.E aXD.:.:.:.2.<.,.9.5.6.,.0.j & 7 6 6 6 6 6 8 8 1 4 W b.Z Z.5X8X7XW.k.M.`.8X5X~.4X8X4X~.6X8X_._.5XQ.7X8X6X4XW.",
"e.Q.1X8X4XW.6X_.(.8X6X^.4X8X4XE.5X7X`.V.k.W.6X(.(.R eXD.1.6.6.1.1.1.1.1.1.,.9.m & q 7 7 7 7 7 7 7 7 7 ^ n.( C {.8X4X~.l.N.`.9X5X~.4X8X4X^.6X6X(.).4X^.4X7X6X4XT.",
"e.V.4X8X4X~.5X_.(.8X6X^.1X6X4X~.5X9X`.M.k.T.6X'.E.~ ].:.1.1.1.1.1.1.1.6.1.,.9.j 8 7 7 7 7 7 7 7 7 7 6 Z b.^ n 5X8X4XW.g.B.`.6X5XE.4X8X4X~.6X8X_._.8X7X~.4X8X4XW.",
"e.B.1X8X7X~.7X_.(.6X8X^.4X8X4X~.5X7X`.N.k.W.5X{.~ U.9.1.6.1.1.1.1.1.,.1.1.2.9.j * 7 7 7 7 7 7 7 7 7 7 4 R n.F I.9X4X^.k.M.{.9X5X~.4X8X4X^.6X8X_._.8X8X~.4X8X4XW.",
"e.J.1X4X4X^.4X4X4X6X4X~.4X8X4X~.5X9X`.N.l.W.9X{.Y U.G.1.1.1.1.1.1.1.2.9.9.9.0.M & 7 7 7 7 7 7 7 7 7 7 6 R n.G a.0X4XQ.k.M.`.6X5X~.4X8X{.~.6X8X_._.8X7X~.4X6X4XW.",
"g.P.{.8X6X~.4X6X8X6X8X^.`.9X4XE.6X8X1XB.k.W.rX{.Y U.G.,.1.1.1.1.,.9.6.<.{ h h 2 & 7 4 4 1 & 5 7 4 7 6 4 G n.G a.0X4XQ.k.N.`.9X6XE.4X8X{.~.6X8X_./.9X6X~.`.8X5XT.",
"s.P.{.8X5X^.4X4X4X8X7X~.{.6X`.(.4X5X1XB.A.W.5X{.Y U.G.,.1.1.1.6.9.*.S 6 # + # 1 6 # t b x x b }.XX X XXX/ b.G h.0X4X^.k.N.`.6X`.(.{.6X4X~.6X4X(.`.8X7X^.4X9X1XW.",
"e.N.{.8X5XE.6X_._.8X7X~.4X`.^.8XE.5X1XN.l.W.4X5XY U.G.,.1.1.6.>.N 7 O 1 5 5 5 5 1 6 c.@XdXdXb.;XMXcXcXMX|.wX}.p.0X4X^.k.N.`.5XR.6X^.{.4X^.8X~.{.8X8X7XW.`.8X4XT.",
"e.P.{.8X4X~.4X_._.8X7X^.4X`./.8XW.5X{.M.k.W.4X5XY U.G.,.1.6.3.9 + 1 5 5 5 4 5 5 + r s.+XbXgXP *XcXsXsXgX>XgXn.R.9X4X^.A.N.`.5XT.6X~.`.8X6X8X^.{.8X5X7X~.4X9X4XW.",
"e.P.{.6X5X~.5X/._.8X5X~.4X`.~.8XT.5X`.N.e.T.4X5XY m.G.6.6.D.g $ 5 5 1 5 5 1 5 5 + J s.+XxXsXb ;XcXgXgXgXxXaXH {._.5XW.k.V.4X5XT.8X^.`.8X6X8X~.`.8X6X7X^.4X8X4XT.",
"e.V.{.8X4X~.6X_.).8X6X~.4X`./.6XT.5X1XN.k.T.rX4XY |.G.1.9.{ 4 5 5 4 5 5 5 5 4 5 + E x.+XcXsXn ;XcXsXdXzXsXcX|.i.1X5XW.k.N.`.5XT.8X/._.8X6X6X~.{.8X8X5X~.4X8X4XW.",
"e.P.{.8X7X~.7X).).8X7X^.4X`./.6XT.5X`.M.g.W.4X5XY +XG.5.S.5 1 5 5 5 1 1 4 5 5 5 + P x.+XcXgXn ;XBXqX*XcXsXvX%XD 5XrXW.k.N.`.{.T.8X^.1X8X6X8X~.{.8X6X8X~.4X8X5XW.",
"e.P.{.8X4XW.7X_.).8X6X~.4X`.~.6XT.5X1XB.g.W.4XrXY U.9.6.{ 1 5 5 1 1 5 5 5 1 4 5 + T x.+XcXsXb n b.I *XcXsXvXoXU 5X4XW.k.V.`.5XW.4X^._.8X7X4X~.`.6X4X4X^._.5X`.Q.",
"e.P.{.4X8X~.4X_.).8X8X^.4X4X/.6X~.4X1XM.g.W.4X5XY &X[.4.z $ 5 5 1 l 5 4 4 5 4 4 1 T s.+XxXxX*Xx 5 Q pXxXdXzX%XD 5X5XW.k.V.).W.W.W.Q.^.~.Q.~.W.^.W.W.~.W.^.W.W.W.",
"r.P.{.8X4X^.6X_.).8X7X4X)._.7X6X^.4X{.M.g.W.4X5XT -X7X:.y.5 5 & V w.1 4 5 4 4 5 1 r s.+XcXsXxXpX%XaXxXxXtX=X%XU 5X5XW.k.k.k.A.k.k.k.k.k.g.g.l.k.k.k.g.g.g.k.g.g.",
"e.P.{.8X4X~.4X_._.8X6X8X^._.8X6XE.4X{.M.g.W.4X5XU -XrX4.>.5 + v H.z + 2 + 1 5 5 1 7 s.+XxXsXgXxXbXgXsXxXwXm.}.t.5XrXW.k.Z.J.V.V.V.V.V.V.V.V.V.V.V.V.B.B.V.V.V.V.",
"e.B.`.6X6X~.4X_._.8X6X8X/.(.8X6X~.5X4XM.g.W.1X5XT -XrX4.r.4 4 y.8.z { ` @ 4 5 1 5 $ b $XcXgXgXgXsXsXsXcXU.s.K.U {.4XQ.k.Y._._.2X/._.2X_./.`./._.1X'./._._.1X'./.",
"s.P.{.8X6XE.6X_._.8X7X6X_._.6X6XT.5X`.M.g.W.1X5XU -XrX4.m = m 6.2.<.D.i + 1 4 + 1 5 5 c.xXgXsXsXgXsXzXnXb.dXoXU 7X4XE.g.C.4X6X6XT.4X9X4XW.8X~.`.8X4XE.6X8X8X{.T.",
"e.I.{.8X4X~.6X_._.8X7X6X^._.8X5X~.5X1XM.g.W.1X5XY OX'.,.l * w.7.,.6.5.M 1 5 4 4 $ 5 4 @ @XMXbXxXxXbXxX^ x vX%XU 5X4XW.g.B._.6X7XE.4X8X4X^.8X^.`.8X4X^.4X6X8X5XW.",
"e.N.{.4X/.4X8X(._.6X6X8X(._.8X6XT.5X1XM.g.W.4X5Xp.#X[.#.= m D.5.5.,.6.$.$ 5 4 1 + 5 5 5 6 E &XwXwX*Xb.b L vX%XU 5X4XW.g.B.1X8X6XT.4X9X4X~.8X/.`.9X6X~.6X6X8X4XT.",
"e.P.{.4X~.6X8X/.(.8X6X6X)._.8X6XT.5X1XB.g.W.4X(.W.^ 2XN w u.6.1.,.D.7.$.$ 1 + + $ $ O : @ 5 9 c x t y x b &X%XU 5X4XW.g.B.1X8X7X~.4X8X1XW.8X^.`.8X4X~.4X8X8X4XW.",
"e.P.{.{.~.4X9X_._.8X4X9X^._.8X6X~.4X4XM.g.Q.6X_.(.W '.t.Y 6.1.1.,.,.9.@.  + O O O 0 F A b.qXqX;X*XXX XoX/ P |.U 5X4XQ.k.P.`.9X5XE.4X8X4X~.6X^.`.8X5X~.5X6X9X5XW.",
"e.P.{.{.~.8X8X_.).8X8X4X(.{.8X6XW.5X`.M.k.Q.5X_./.E $Xr.S.1.1.6.6.S.G.N   O O O X v v.@XvXcXcXcXbXcXcXvXpXqX%XU 6X4XQ.k.N.`.8X5X~.4X8X4X^.8X/.1X8X5XE.5X6X6X{.T.",
"g.P.{.4X~.8X8X_._.8X8X~.4X8X8X4X~.5X`.M.g.Q.4X_./.Q #X>.5.1.1.1.<.{ %.5 O O O O . v s.+XxXsXgXsXsXsXgXgXsXMXoXa.0X4XQ.k.N.`.8X5X~.4X8X1XW.7X/.`.8X5XE.5X6X7X`.W.",
"e.P.{.{./.4X8X)._.8X8X~.4X8X4X~.5X8X{.B.g.^.4X).).E #X<.6.1.1.6.u.l M $ O O O O . v s.U.xXsXgXgXgXgXgXgXsXvXXXa.0X4X^.k.M.`.8X5X^.4X8X4X^.6X/._.8X4X~.5X7X8X5XW.",
"e.P.{.{.E.4X8X)._.8X8X^.4X8X4XE.5X8X_.P.g.W.4X)._.I n.y.6.1.,.7.@.6 l + O O O O . v v.#XMXvXxXsXgXgXgXgXgXvX&Xa.0X4XW.k.N.`.6X6X~.4X8X4X~.8X~.`.9X4X~.6X6X8X5XW.",
"e.P.{.4X/.4X8X)._.8X4X^.4X8X4X~.5X8X{.M.g.W.5X).).Q #Xw.6.1.1.5.<.z   O O O O O O 7 t F +Xb.&XxXgXgXgXcXdXcXoXa.0X4XW.k.P.`.6X6X~.4X8X4X~.8X~.`.8X5X~.5X8X6X1XT.",
"e.B.4X4X/.8X8X)._.8X4X^.4X8X4X~.5X8X{.M.g.W.5X/._.C ^ l.5.1.1.5.<.m O O O O O O O .   .   t :XzXsXsXgXgX^ ( n.a.0X{.W.k.N.`.9X5X~.4X8X4X(.4X_.4X6X`.~.4X7X8X5XT.",
"e.P.{.4X~.4X8X{._.8X4X_.{.8X4X~.5X8X{.M.g.W.5X/.1XC ~ r.5.1.D.N l n . O O O O O O + O   n dXcXgXgXxXsXb.b ( / a.0X4XW.k.N.`.6X5X~.4X6X6X6XE.6X8X_.E.^.4X6X7X1XW.",
"g.P.{.4X~.6X8X_._.8X4X~.4X8X4X~.5X8X1XV.l.W.4X6X9XF c.u.5.1.1.S.S 0 X O O O O X O . 4 P dXxXsXzXgXpXQ b t }..Xa.0X1XW.A.V.`.9X5XE.4X8X8X6X~.4X8X4X~.6X~.4X8X4XT.",
"e.P.{.4X~.6X8X)._.8X8X~.4X8X4XE.6X9X2XV.e.W.5X6X5XL m.2.6.1.1.5.0.N X O O O O + O 6 H $XcXsXsXzXgX#XE ( ! pX%Xa.0X1X^.k.N.`.8X5X~.4X8X6X4X~.7X8X1X^.8X~.4X8X4XW.",
"e.B.{.4X~.6X8X_._.8X_.1X4X4X_.4X_.5X1XV.k.W.4X6X{.J @XD.1.1.1.1.6.*.O X O O O O . v x.+XxXgXzXsXgXcXcXgXaXvX&Xp.0X1X^.A.N.`.7X6X~.4X8X6X6X~.4X8X`./.7X/.`.8X5XT.",
"g.P.{.4X~.5X8X_._.4XW.6X8X`./.8XT.5X1XV.l.W.5X9X`.L sXD.,.5.6.6.6.7.$.X O O O O . c s.+XcXgXsXzXgXgXgXgXsXvXoXa.0X4XW.k.N.`.8X5X~.4X8X8X4X~.4X8X`.~.5XW.`.9X1XW.",
"e.P._.4X~.6X8X_._.4X~.4X8X_.(.6XT.5X`.V.g.W.4X7X`.L 2X,.1.D.K A =.<.0.S o O O O . c s.+XxXsXgXgXsXgXsXsXsXvXoXp.0X1XQ.k.N.{.9X5X~.4X6X6X5X~.4X8X`.~.7X~.`.9X4XT.",
"e.P.4X4XE.6X8X_._.6X~.8X8X_./.6XE.5X1XN.g.W.5X6X_.R !.4.7.F.S B c A #.S 0 O O O O c s.@XvXcXcXcXcXcXcXbXxXvXXXa.0X5X^.k.N.`.6X5X~.4X8X6X5X^.4X8X`.~.6XE.4X8X5XT.",
"s.P.{.4X~.6X8X_._.4X~.4X8X{.).6XW.4X1XV.g.T.5X8X`.R !.4.u.n N N z 6 . O 1 O O O . c x.U.qX;X;X;X;XqX*X=X;XbX&Xa.0X4XW.k.N.`.9X5X~.4X8X6X4X~.4X9X`.~.6X/.`.8X4XW.",
"e.P.{.4X^.8X8X_._.7X^.4X8X`.^.6XT.5X1XV.g.W.5X`.(.R !.5.l r l z z z O O O O O O O 4 w 7 7 4 5 t b b n F b &X%Xa.0X1XW.l.N.{.6X5X~.4X8X8X4X~.4X8X`.E.7X~.1X8X4XW.",
"e.M.{.4X~.6X8X_./.4X~.5X8X{.).6XW.5X1XB.g.W.5X_.'.! ^.u.P F t K v h . O O X O O O O . .   9 t.m.K.n.R Z b n.oXa.0X5XW.A.V.`.9X6XE.4X8X6X5XE.4X8X4X_.5X^.`.9X4XW.",
"e.P.{.4X~.6X4X_.{.6X~.5X8X_./.8XW.5X1XV.g.W.5X_._.E #Xu.v.} 9 B 6 q 6 O O @ @ O O O O . P dXzXxXkXkXpX! b G / h.0X1XW.A.N.{.6X{.^.{.6X8X6X/.{.5X8X6X5X~.`.9X4XT.",
"e.P.{.{.~.6X^.{.8X4X~.4X8X_./.4XW.4X4XM.k.Q.5X_./.E &Xu.a.6.>.$.y.D 0 1 - @ : @ O O   A gXcXgXgXsXsXcXqXb ( |.a.0X1X^.k.N.`.5XT.6X~.`.6X6X8X^.`.8X6X5X~.`.9X`.W.",
"e.M.{.4X~.6X~.{.9X4X~.6X8X8X4X^.5X6X`.M.k.W.6X_.(.! $Xu.c 2.<.+.N z S ` k i - - @ X 7 @XbXsXgXgXgXgXsXcX^ @X-Xp.0X1XW.k.N.`.5XE.6X~.`.9X6X6X~.`.8X6X6X~.{.8X5XW.",
"g.P.{.{.~.8X^.`.9X4X~.6X8X8X4X~.8X8X`.B.k.W.5X_./.! #XS.l @.G.M z &.>.k < ; - : @ 1 T @XxXgXsXgXxXsXsXxXwXsXoXa.0X4X^.g.N.{.{.E.7X/._.8X7X8X~.`.8X8X8X~.`.8X4XT.",
"e.P.{.4X~.8X/.`.8X4X~.4X6X8X4X~.5X8X`.B.k.W.5X(./.! ^.4.S #.0.&.&.9.S ' i - ; - - 9 s.+XcXgXzXgXdXxXgXgXxXvXoXa.0X4XQ.g.N.{.5XE.7X/.2X8X7X8X~.`.8X6X`._.5X8X4XW.",
"e.P.{.4X~.8X~.`.8X6X~.4X6X8X4X~.5X8X`.B.k.W.4X(.!.E !.4.y.z 1.8.9.M } | i > , , < l c.+XxXgXzXb.l %XcXsXsXvXoXa.0X4XW.g.P.{.4XE.7X)._.8X6X8X^.`.8X5XW.6X9X6X4XW.",
"e.P.{.{.~.8X~.`.8X4X~.6X6X8X4X~.5X9X1XV.k.Q.W.W.Q.W !.4.>.6 v %.N 0 ] 3 - : , , ; I x.+XxXxXm.r w Z aXxXsXvXoXa.0X4X~.g.N.{.4XE.6X/.`.8X7X8X~.`.8X5X~.5X7X6X4XT.",
"e.P.4X4X~.6X/.`.9X5XE.5X6X8X4X~.5X8X4XB.e.l.r.k.r.G 2X4.>.7 r r w g | > - ; > 3 ; T x.@XxXxXQ w w l wXxXsXvXoXa.0X1XQ.g.B.{.5XT.6X/.`.8X6X6X^.`.9X4XE.5X7X8X5XW.",
"e.P.{.4X~.7X/._.8X{.~.5X8X8X4X~.5X8X`.B.e.Q.Q.P.J.G !.:.<.K e r t B } } : i > , ; n x.@XcXgXwXJ r n.cXgXsXMX%Xa.0X4X^.g.B.{.4XE.6X^.`.6X7X8X~.`.6X5X~.5X6X8X4XT.",
"s.P.{.1X/.6X^.`.8X4X~.5X6X8X4X~.5X8X{.M.k.W.`.1X/.R !.4.1.D.K q +.=.i =.i > , , < 9 x.m.cXsXcXwX>XsXgXgXgXzX|.a.0X4XQ.k.N.`.5XT.5X/.`.8X7X7X/.`.8X4XE.5X6X8X5XT.",
"e.I.4X_.E.6X/.`.9X5XE.5X6X8X4XW.5X8X{.V.k.W.6X9X_.R <XS.1.7.=.4 =.>.| $.j > , > , 3 Q ;XxXsXsXxXcXgXgXcX;XU.^ a.0X4X^.g.N.{.4XE.6X^.`.8X6X8X~.`.8X5X~.5X6X6X4XW.",
"e.V.{.4X~.4X^.`.8X4X^.4X6X8X4XE.5X6X`.V.k.Q.6X8X_.P oXr.5.9.$.h 2.3.>.>.h < , , 3 ; x yXgXsXxXgXsXgXsXcXn.gX%Xp.0X1X^.k.N.{.5XT.7X/._.8X6X8X~.{.9X4X~.5X6X8X4XW.",
"e.P.{.4X^.8X~.4X{.~.6X~.4X8X4X~.5X9X`.B.k.~.5X8X`.P #Xw.5.9.$.M 2.3.| D.j : < ; > 3 ; m.vXsXsXsXsXsXcXyXZ kXOXD 5X4XW.k.M.{.5XT.6X^.`.8X6X6X^._.8X5X~.4X6X8X4XT.",
"g.P.1X6X4X8X/.{.4X~.8X~.4X8X4XE.5X6X`.M.k.^.4X8X{.C ~ r.5.5.u.y.3.3.>.} i : , u , , , l |.bXcXxXcXbXpXC r kXOXK 5X4XW.k.N.`.{.E.8X/.`.8X6X8X~.{.8X4X~.5X8X8X4X~.",
"e.P.`.6X8X6XE.4X4X^.6X~.4X8X4XT.6X9X`.M.k.W.5X8X4Xn s.f.5.6.u.%.:.$.h u u u p f a 3 , ; - Q #XqX>X@XB > |.kX.XT 5XrXW.k.N.`.5XE.8X)._.8X6X6X~.`.8X6X~.5X6X8X4XE.",
"g.P.{.6X5X9X~.4X{.~.8X~.4X8X4X_._.7X`.V.k.W.5X8X1Xn c.l.5.6.J { &.u [ ] a f s s p J -XL h < ; i > < k $XhXjX.XU 5X4XW.g.V.`.5XT.8X/._.8X6X8X~.{.6X5XT.5X6X8X5XW.",
"e.P.{.8X6X6X~.{.4X~.6X~.{.6X8X8XT.5X4XV.k.W.4X8X2XJ L.x z.F.$.4 3 [ o. .) p s f p J jXiX:XY.m < u y.yXiXuXjX.XU 5X4XW.g.V.`.5XE.6X/.`.8X6X6X^.4X9X5XW.5X6X8X`.T.",
"e.P.`.6X6X6XE.{.{.~.8X~.4X8X6X7XW.5X1XV.g.W.4X9X_.P #Xt J { 1.r , ] ..o.) a f s p J iXuXiXlXyX+X$XyXfXuXuXjX}.U rX5XW.g.M.{.5XT.6X~.`.8X4X~.4X8X5X5X/.5X8X8X{.W.",
"e.P.{.4X/.8X^.1X4X~.8X~.`.8X6X6XT.5X1XV.g.W.4X8X`.P &X5 8 B H.V > ] ....) a s s p P iXuXuXuXiXlXfXfXuXuXuXkX.XD 5X4XW.g.N.`.4XT.8X~.`.8X5X~.4X8X8X4XT.6X6X8X5XW.",
"e.P.4X4X~.8X/.1X{.~.6X^.4X8X6X6XT.5X1XN.g.W.5X8X4XR ^.A w Z D.F.S [ ..o.) a s d p P iXuXuXiXuXuXuXfXuXfXuXuX}.T 4X4XW.g.N.`.6X`._.`.5X8X5XW.4X8X6X5X`._.4X8X4XT.",
"e.P.{.4X~.8X~.1X{.^.8X~.`.6X6X6XT.5X1XV.g.W.5X6X5XE 2X+.w w y.} z _ ;...[ s f d p P hXiXhXuXuXiXuXuXfXfXn.}.}.U 5X4X~.g.N.{.6X6XE.4X8X6X5X^.4X8X6X8X9XW.4X8X4XW.",
"g.P.4X4X~.6X~.4X4X~.6X~.4X8X6X7XT.5X1XN.g.W.5X6X5XW '.$.r w V w.> f  ... .s a d a 9 y ! >XuXiXiXiXlX>XR G pXoXU 5X4XW.g.M.{.8X6X~.4X6X8X5X~.5X6X6X7X5X~.{.8X4XW.",
"s.P.{.4X~.6X~.{.4X^.6X~.4X6X6X7XT.5X1XM.g.W.5X6X5XW !.5.N x l S 5 h ] X.] f a s s - o   F / >XiXuX}.! R oXkXOXD 5X5XW.g.N.{.6X6X~.4X8X6X5XE.4X6X7X8X6X~.`.9X4XW.",
"e.V.{.4X~.8X~.4X4X~.6X~.4X8X8X7X~.4X4XB.A.W.5X8X5XE !.4.u.g.9 t & * M ) [ ) a d p n ,X}.>XtXtXiXfXtXtXlXfXkX.Xi.0X4XQ.k.B.`.8X5X~.4X6X8X5X~.4X6X6X7X7X~.`.8X4XT.",
"e.R.{.4X~.6X4X_.2X4X6X4X_.{.8X6XE.4X1XB.l.W.5X7X{.E ^.2.6.G.S & # % g 0 k f a a u ! kXjXhXhXfXfXfXlXfXfXiXmX.Xi.0X4XW.k.N.`.8X5X~.4X8X6X5XW.4X8X6X7X8X^.4X9X4XW.",
"e.V.5X4X~.6X8X(._.8X8X8X~.(.8X6XT.5X1XV.k.W.5X8X5XT &Xs.S.u.h.7 = % % % # i f d X L hXiXiXfXfXfXfXfXiXiXiXmX.Xa.0XrXW.A.N.`.9X6XE.{.8X6X5X~.4X8X8X6X7X~.{.8X4XT.",
"e.B.{.4X/.6X8X_._.8X8X8X`._.4X6XT.5X4XB.e.W.5X5X5XE #Xs.c.F r.%.6 8 * = # # g 0 X H fXiXiXiXiXiXiXiXiXiXfXmX.Xa.0X4XW.k.N.{.6X{./.5X6X5X4X~.4X5X5X7X8X~.4X8X4XW.",
"g.P.{.8X6X6X8X_._.8X6X6X6X`.^.6XT.5X`.N.k.W.5X_.^.Q #Xs.s.Q e.7.=.*.' 3 % = % % X H kXjXjXjXjXjXkXkXkXkX:X-X}.i.0X4XW.v.P.{.4XE.6X8X_./.6XW.4X(.).8X7XW.4X8X5XW.",
"s.P.{.8X6X6X6X_.).8X6X6X6X`.(.6XR.5X4XV.k.W.5X_./.E #Xx.P x.g.{ #.-.-.O.` g & % = x %XOX.X.X.X.XXX.X^ / G C C d.0X4XQ.g.P.{.4XE.7X8X_._.8X~.4X_.(.8X8X^.`.9X`.T.",
"e.V.{.8X5X).6X_.).6X6X6X8X`.(.6XT.5X`.V.l.W.5X(.(.A c.x.x.s.Q S ] ] ....-.O.j = = # 7 7 7 7 6 7 7 4 + @ O A m h.0X4X~.g.M.{.4XE.5X8X_.^.6XE.6X(.(.8X6X^.4X8X4XW.",
"e.Q.4X8X4XW.4X_._.8X6X6X6X`.^.7XT.5X`.V.k.W.5X(.(.C s.P C & n n [ -...;.O.;.-.` 5 & 7 6 7 0 0 7 7 c q B S w.m d.0X4XW.g.M.{.4X~.6X8X_._.6X~.4X_.(.8X7X~.{.9X4XT.",
"e.P.`.8X5XE.6X(.^.8X6X6X8X`./.8XT.5X4XN.g.W.5X_.(.E #Xd.r.b t t S *.;.;.O.;...o.] z c l S N S l l y.c t.w.w.m h.0X1XQ.k.C.{.4XE.6X5X`._.4X).5X(._.8X6X^.`.8X4XW.",
"e.V.{.8X4XE.5X`._.6X6X6X8X`._.7XT.5X`.V.k.W.5X_.{.A b.d.p.Q P Q Z @.-.O.-.O. . .O.h N w.K v t.+.S t.l m x E F a.0X1X^.k.J.{.4XR.8X^._.4X~.6X6X_._.6X6X~.4X8X4XW.",
"g.P.{.6X5XE.4X6X6X6X6X6X6X6X6X7X~.4X1XV.g.W.5X_.~.A I.N.} d k k 0 u.-.O. .;.O.o.[ O 7 9 5 9 l l 9 6 + O . ! R h.0X4XW.k.N.{.5XT.6X/.`.4X~.6X6X_._.8X6X~.4X8X5XW.",
"e.P.{.9X5XE.5X9X8X6X8X6X6X8X8X6XE.5X`.N.r.W.5X_.(.A [.J.o.o.o...] ;. .;... ...-.k o @ X X X . . X . O . 4 K.G d.0X1X^.k.N.`.5XT.6X^.`.4X^.6X8X_._.8X7X~.{.9X`.T.",
"e.I.`.1X_./.`.`.`.`.`.`.`.`.`.'./._._.J.g.W.5X(.).D ].H.O.O...X.;.O.;.O. . .;.-.` o $ O O # O O + O = o 8 ^ G j.0X1XW.k.M.`.4XW.8X^.4X4X~.6X8X_._.6X7X^.{.8X4XW.",
"e.C.V.P.V.V.B.B.B.M.N.N.N.V.N.V.N.N.P.Z.g.W.5X_._._.t.S =.<. ...-.-.-.-.-.-.-.-.` = + % . o o   o o q 8 & A j.9X6X4XW.k.N.4X5XT.6X/._.7X_.6X8X_._.8X8X~.4X8X4XW.",
"A.k.k.k.k.k.k.l.k.k.k.k.k.k.k.k.k.k.h.v.k.W.4X_./.8XI.I.j.I B +.y.y.y.y.y.%.%.%.m y F F n c c c c c A I.I.I.8X4X4X{.W.k.N.{.4XW.8X)._.8X6X6X6X_._.6X4X^.4X8X4XW.",
"A.P.^.Q.^.Q.^.^.^.W.^.^.!.W.^.^.^.W.^.V.j.^.4X_._.4X^.9X9X_.4XY.j.d.j.j.a.m.m.h.t.S h.i.R._._.(.(._./.~././.E.~.~.~.^.k.N.{.4XW.8X^._.8X7X7X8X_._.7X^.7X6X6X4XW."
};
