/* XPM */
static char *exit_sprite_resized[] = {
/* columns rows colors chars-per-pixel */
"80 80 250 2 ",
"   c #000303",
".  c #020A0D",
"X  c #01070B",
"o  c #021900",
"O  c #071807",
"+  c #010611",
"@  c #040C15",
"#  c #090D14",
"$  c #060F18",
"%  c #090E19",
"&  c #061115",
"*  c #091115",
"=  c #071119",
"-  c #0A131C",
";  c #0C1B1D",
":  c #061A19",
">  c #121919",
",  c #11160B",
"<  c #0A211E",
"1  c #172618",
"2  c #142E0F",
"3  c #223C1E",
"4  c #0E1720",
"5  c #0D1A22",
"6  c #061A22",
"7  c #121B24",
"8  c #141B26",
"9  c #0C2324",
"0  c #0C2C2C",
"q  c #0B2529",
"w  c #14222B",
"e  c #1A232C",
"r  c #132D2C",
"t  c #162927",
"y  c #19352C",
"u  c #0E2B33",
"i  c #142D32",
"p  c #192A34",
"a  c #1C3534",
"s  c #1C3A34",
"d  c #1C3B3B",
"f  c #163538",
"g  c #0E3334",
"h  c #263729",
"j  c #233A34",
"k  c #243C3B",
"l  c #263738",
"z  c #292F2F",
"x  c #1C443A",
"c  c #1D4021",
"v  c #284728",
"b  c #24433C",
"n  c #2A423C",
"m  c #27493A",
"M  c #34483B",
"N  c #2C503B",
"B  c #38563A",
"V  c #314E2E",
"C  c #41523C",
"Z  c #1B3B43",
"A  c #263B41",
"S  c #323C45",
"D  c #1E4545",
"F  c #234442",
"G  c #2B4443",
"H  c #254B44",
"J  c #2B4C44",
"K  c #2B4C4B",
"L  c #25494A",
"P  c #334D42",
"I  c #384B46",
"U  c #2D5245",
"Y  c #2D544A",
"T  c #2B584A",
"R  c #335445",
"E  c #33544A",
"W  c #345A4C",
"Q  c #3B5B4C",
"!  c #3A5746",
"~  c #2E5652",
"^  c #355B53",
"/  c #3A5C53",
"(  c #355C59",
")  c #385856",
"_  c #2A4D53",
"`  c #3C624C",
"'  c #386249",
"]  c #3B6354",
"[  c #3C635B",
"{  c #3D6B5C",
"}  c #376558",
"|  c #3D6A63",
" . c #3C6562",
".. c #3B7061",
"X. c #435C4C",
"o. c #465948",
"O. c #455D55",
"+. c #51584E",
"@. c #47634C",
"#. c #436454",
"$. c #4B6354",
"%. c #426A54",
"&. c #42655B",
"*. c #436B5D",
"=. c #4A6C5C",
"-. c #4B6858",
";. c #536B5C",
":. c #576858",
">. c #49745B",
",. c #58765A",
"<. c #536B4E",
"1. c #67685B",
"2. c #66755B",
"3. c #716C5A",
"4. c #436C63",
"5. c #4B6C63",
"6. c #466A67",
"7. c #586C64",
"8. c #447264",
"9. c #4D7364",
"0. c #4B746A",
"q. c #49776A",
"w. c #547464",
"e. c #5B7363",
"r. c #52746B",
"t. c #547B6C",
"y. c #597A66",
"u. c #557973",
"i. c #6C6B62",
"p. c #656C64",
"a. c #746B67",
"s. c #637364",
"d. c #637B64",
"f. c #63746A",
"g. c #6B756A",
"h. c #647C6C",
"j. c #6C7A6B",
"k. c #6A7765",
"l. c #727B6C",
"z. c #757767",
"x. c #6A7A70",
"c. c #757970",
"v. c #625F5B",
"b. c #995E5C",
"n. c #975E5B",
"m. c #9C605B",
"M. c #806056",
"N. c #A2665B",
"B. c #867965",
"V. c #997C69",
"C. c #976261",
"Z. c #B97C68",
"A. c #B27766",
"S. c #A57E62",
"D. c #9D5F60",
"F. c #59815B",
"G. c #5A836A",
"H. c #5B8576",
"J. c #67856A",
"K. c #78876A",
"L. c #678A78",
"P. c #768977",
"I. c #699377",
"U. c #769779",
"Y. c #6E9568",
"T. c #78A479",
"R. c #65895E",
"E. c #85886A",
"W. c #869778",
"Q. c #8E8D72",
"!. c #BD816B",
"~. c #BA846C",
"^. c #B8947C",
"/. c #AE8871",
"(. c #93A97C",
"). c #A4AA7F",
"_. c #C58B6E",
"`. c #CB8E72",
"'. c #C38C72",
"]. c #CC9173",
"[. c #C79379",
"{. c #D29576",
"}. c #D29779",
"|. c #D4997A",
" X c #DA9D7E",
".X c #D39877",
"XX c #CC906E",
"oX c #DCA07E",
"OX c #668C83",
"+X c #778C82",
"@X c #6B9486",
"#X c #789887",
"$X c #759C93",
"%X c #6C9C90",
"&X c #7AA284",
"*X c #7AA597",
"=X c #6DA18C",
"-X c #5E8F85",
";X c #869B86",
":X c #949A8A",
">X c #87A689",
",X c #96A889",
"<X c #86A996",
"1X c #98AB95",
"2X c #99B597",
"3X c #96B191",
"4X c #A4AC8D",
"5X c #A8B68B",
"6X c #B5B78A",
"7X c #A4AB94",
"8X c #A8B796",
"9X c #B6B996",
"0X c #96B8A9",
"qX c #88AFA2",
"wX c #B7BCA3",
"eX c #A9B9A6",
"rX c #B89782",
"tX c #CE9D82",
"yX c #DDA282",
"uX c #DAA487",
"iX c #E1A585",
"pX c #E3A887",
"aX c #E2A789",
"sX c #E4A98A",
"dX c #EAAB8B",
"fX c #EAA986",
"gX c #BBC39D",
"hX c #AFC28F",
"jX c #9CC1AE",
"kX c #ABC4A8",
"lX c #B9C7A6",
"zX c #A9C7B1",
"xX c #B8CFB4",
"cX c #C5C99E",
"vX c #C6CAA7",
"bX c #CCD3AB",
"nX c #CAD2A7",
"mX c #D5D8AB",
"MX c #CAD7B8",
"NX c #D6DBB5",
"BX c #CDCDAF",
"VX c #DCE3BA",
"CX c #DDE0AF",
"ZX c #E5E5B9",
"AX c #E0DDB2",
"SX c #D0DCC1",
"DX c #DAE4C6",
"FX c #CFE3C3",
"GX c #E6EEC8",
"HX c #B7D2C3",
/* pixels */
"m._.yXiXiXaX]. XsXaXsX].yXsXaXaXQ.g.c.s.p.l.z.g.l.l.l.l.l.l.k.g.j.l.z.k.z.E.B.c.s.s.z.2.:.p.:.:.1.f.e.p.:.g.l.p.p.p.g.7.s.l.z.z.uXpXsXoX].pXsX|.|.pX].yXsXsXyXXX",
"m.!.yXiXiXaX]. XsXsXaX{.yXaXaXaXz.$X6.F E OX<X&.J @X<X&.J J @XH.{ *X*.x N I.*X .Y L.<X%.m Y %XH...*X4.m R L.<X&.J @X<X*.x J @Xl.|.fXsXuX].uXsX.X|.yX].iXpXsXyX`.",
"D.!.|.aXaXfXXX XsXpXaX].yXsXaXaXc.5.P w f P -.) H _ G I ,X<.%.*.| 6.! P.M a J ~ W W N < ;.s.&.8.8.5.B l.P.p F D J ] W x q n 4.:.XXiXsXoX{.pXsX.X}.aX].uXpXsXyX`.",
"b.Z.yXaXiX X X|.yXsXaX].yXsXyX Xc.D h.I g 5.5./ t.( q M vXlX-.T q.L K.NX+.q r.u.{ q.' q P.lX-.T 8.K l.ZXW.9 d u.w.] w.T q L.r.$.^.yXsXuX].pXsX|.}.yX`.aXsXaXyXXX",
"D._.yXaXyX`.aX}.}.sXsX].yXsXyX].c.b #X) m jX;Xo.J.H.m y gXbX,.^ 8.R W.GX7.b jX>XU G.G.y W.MX,.^ 0.E W.ZX2.q ` zX#X! Y.>.a P.w.O.XXyXsXyX}.uXsX}.}.aX}.yXyXsXyX`.",
"b.!.yXsXiX`.aX}.}.sXsX].oXaXyX].l.P W.$.T jXs.2 ,.I.R y lXnX:.} q.' K.nXp.U 2X,.2 J.I.N ;XvX;.] 8.R E.mXp.k %.2X<.2 Y.I.K P.d.:.'.yXsXyX].pXsX}.|.sXaX].yXsXyX`.",
"b.!. XsXiX`.iX}.}.sXaX].yXsXyX].K.$X2X-.W >XB o R.U.' x 8XcX3Xu.4.&X5XgX2.W <X@.o Y.I.N ;XvX,Xt.4.&X(.nXp.K %.T.C o Y.I.J L.2XP.~.pXsXyX].pXsX|.}.sXsX].yXsXyX`.",
"b.!. XfXiX`.iXyXyXsXaX].yXsXyX].l.=.;XX.T T.<.h G.J.U 0 9XmXJ.&.| ,.W.nX:.N U.<.c J.J.s K.nXJ./ 8.;.Q.CX:.p R I.<.V R.G.f P.J.$.'.yXsXyX].pXsX|.|.sXsX`.yXsXyX`.",
"m.!.oXsXiX].iXsXsXsXsX].yXsXyX].c.N P.o.y G.y.Q u.0.Z 1 8XnX<.T 8.R K.nXX.a H.y.Q L.=.0 K.vX,.Q >.! E.mXv.q F t.>.%.G.] 0 P.,.$.'.yXdXoX].pXdX|.}.dXsX`.yXfXyX`.",
"n.~.oXsXiX].iXyXyXsXsX].yXiXoX}.l.#X,Xn g Y / } } _ f w 9XvX3Xt...#X,XnX+.w _ ( ] ^ J 9 P.nX3Xt...>X4XnX+.6 Z _ ^ ] T F 9 j.0XP.'.oXpXyX].sXyX|.yXsXsX`.yXaXyX`.",
"n.!.oXsXyX].iX}.}.sXsX].yX|.].sXl.-.W.o.: 9 l H x g 5 + vXbXd.} ..,.W.CX+.# u x K s q * :XvXy.} 8.,.Q.CX+.. f u b J 0 5 > P.y.+.uX.X XyX}.sX].oXsXiXfX`.yXaXyX`.",
"n.!.oXaXiX].iX}.}.sXaX].yXyX].sXc.n W.lXC z l r 0 u z z gXnX<.~ q.N W.GXz.1 a r 0 r z h 5XvX<.( 8.R Q.GXz.1 p q 0 0 k h z.lX<.$.uX]. XaXuXsX].oXsXaXaX`.yXaXyX`.",
"n.!. XpXiX`.iX|.}.sXiX].yX X].aXc.K P.NXVXMX+XO.O.E eXDXNXcX<.T 6.E K.mXVXMXP.;.%.! eXNXNXkX;.T 8.E K.bXVXMXL.7.&.E 8XVXNXgX;.$.uX{. XsXaXsX]. XsXaXsX`.yXsXyX`.",
"n.!.oXsXiX`.iX}.}.sXaX].yX X}.aXg.) +.:XxX8Xd.zXkX,.f.9XlXK.X.] 0./ o.,XlX8Xd.zXzXy.,.8XgX2.` } 6.( o.(.gX3Xd.lXxXy.,.5XcX2.Q ;.uX{.|.sXpXaX]. XsXaXsX`.yXsXyX`.",
"n._.oXuXyX`.iX{.}.sXaX`.yX|.].uX1.#Xw.W <.U.2XT.=.U.>Xd.$.E $XH.^ *X5.X.@.#X2XU.;.U.<X2.@.Q *XH.} %X5.o.-.U.3XU.,.P.>Xd.#.Q $XP.uX|.yXuXsXdX{.yXsXaXsX{.yXsXaX`.",
"n._.oXdXfX{.fX XyXdXdX{.fXiX.XdXi.q.5.( } y.y.*.^ 0.J.>.( } t.8.} q.8.( [ t.L.*.` >.y.*.} | 8.| } 9.5.[ O.r.q.{ ` 5.u.4.( 4.0.e.[./.^.tXtXtX~.rXtXtXtX/.rXtX[.~.",
"3.C.Q.V.Q.B.Q.B.B.Q.B.z.B.B.B.Q.o.p d j k k a k A d a s b k s s x f d A A a y k l s s d A d d F k b l A l r a f a Z k a y y e j #.r.5.=.-.=.y.w.;.y.;.=.5.7.r.g.",
"v.#Xu.T E E #Xy.N #X9.J W J @XH.a + . @ . @ & + - + $ @ @ . . + $ @ = $ @ * # . + @ = @ @ . & ; - 4 . ; @ . e e @ 4 &   X # - < O.$X&.J R @.1Xe.@.<XJ.! / I +XL.",
"p.5.! P.1X>X1X7XW.7X,X,X4Xk.#.5.d @ # # @ @ = # $ @ @ + $ $ @ % % @ > - @ > - # @ 4 @ = @ = = @ $ = - @ @ p S 8 % 4 * * % w w 9 / / o.U.8X4X;XU.P.;X#X+X+XX.G 7.",
"p._ r n P X.@.! M z z Q.NXwX$./ k + % 7 e = = @ @ @ @ @ @ @ - 4 @ @ 8 7 $ w 8 = - @ - = @ - @ @ $ 5 - + - 5 - + + + $ $ + @ $ r ( Q W.VXBX+.; p j N Q n a r i -.",
"p.^ d f L Q ] W x f q * BXNX2.[ G - - & & & = = $ $ $ $ = = = $ $ $ $ @ - - = @ @ @ @ @ @ @ @ - @ 4 4 4 = = - 7 - - 7 - = 4 = 9 ( ] ,XGXz.  s D } >.w.t.( g x ;.",
"1.%XE [ L.T.T.U.L.[ u : HX:X#XL.k e 4 = . @ $ $ $ $ $ + $ $ = $ @ $ @ $ = = $ $ @ = @ @ @ & @ - : p w = 4 = - - - $ $ - - 4 - w } >XU.xXf.& x 9.I.W.3XHX0XJ H.#X",
":.<X>.` F.B B @.=.6.H < e.;.&XL.k 8 4 % @ @ $ $ % $ = $ - @ $ $ @ 4 - @ $ - $ $ @ @ @ @ @ + + - @ p e + - % $ @ + @ 4 @ $ 4 $ 6 Q >XU.h.n w _ *.' h 2 $.y.R L.P.",
"p.4.W @.>.V o 3 ! 4._ q n ;XJ.#.l + @ = - @ @ @ * - = $ - = = = @ e z $ - $ - 5 @ @ @ - $ = - @ = @ $ $ $ $ @ # = = @ @ $ e 4 6 Q =.zX>Xy e ~ %.' v 3 V $.] Y ;.",
"g.^ k =.jX2XY.R.G.6.l 6 I xXU.' l # # % z 5 @ @ + $ @ $ @ $ @ = 4 - @ - = @ @ @ = = $ = = - % $ $ = = @ @ @ $ $ $ $ + @ - 8 w 9 ) ! >XJ.p 9 d >.I.&X&XU.L.W b 7.",
"1.#XW F OXU.Y.J.8.Y r 5 7.J.,XL.j % - % > $ % 4 $ @ $ $ @ + = @ $ @ - 4 @ - - @ = = @ = $ $ @ @ $ $ @ @ @ @ @ @ @ $ @ @ = @ + * / >Xd.;.l ; f L ' >.w.8.^ f u.+X",
"1.<XE 6 f b ^ K f 0 q & 0X>X>XL.l @ + % % @ % 7 8 7 - $ $ + 8 - @ @ $ @ @ @ - - = - $ @ + @ @ @ $ $ $ @ @ + + @ $ - - $ & & = 9 ] <XJ.xXl.  4 8 g m Y Z u : u.;X",
"i.&.O.O.l M I n l h z 1 MXMXJ.*.A @ @ % # @ + @ - $ @ $ 7 ; 4 - - @ @ @ @ @ 4 4 + $ $ = * $ % $ $ $ = = @ = $ @ @ - - 4 = @ - p ^ ] :XGXQ.h M o.I X.+.! O.x.$.$.",
"i.J P.MXNXvX9XvXwX9XvXBXZXvX2.^ k + @ % % + + @ $ - - $ $ w e = 7 - $ 6 @ @ @ @ $ - 4 - - % = @ $ $ @ & $ $ $ @ @ $ $ : - @ @ 6 ( E U.mXCXGXDXMXNXbXNXZXVXkX%.X.",
"p.^ B W.9X9X6X6X5X6X6X9X9X2.o.4.k + 4 + + $ - 4 $ @ $ $ - - = @ $ $ = - = - 4 - @ & = 7 = @ @ + @ @ $ 7 4 = $ $ p 7 + @ - @ - 5 ( } o.W.5X(.5X5X5X8X5X5X5X2.W ;.",
"p.#X=.P o.o.;XK.C >XJ.X.o.m L.H.k = = @ 4 5 4 7 4 $ - = $ $ + = $ @ @ @ @ $ - = $ = $ $ $ @ @ @ @ & @ $ $ * = $ 8 4 + @ - - @ 6 ~ *Xt.P o.B >Xy.! >Xd.R #.R %XP.",
"1.q...|  .[ t.>.} G.q. .4.{ q.6.J = - 5 e 4 + $ @ $ = 4 = % = @ - @ @ - 4 $ 6 @ $ $ $ $ $ % $ 4 - $ $ $ + $ - = + @ = - = 4 ; 9 ^ ..4. .| } ..4.' *.{ [ | &.[ 7.",
"1...} | | { ..{ } ..[  .| | } { F - - $ @ @ @ + @ % % % - @ @ @ @ @ @ $ @ @ - $ @ - @ @ - @ 4 - - @ @ @ @ $ $ $ @ $ - 4 @ @ - l ^ ..4.4.6. .9.9.{ t.8.| 4.4.8.e.",
"v.*Xq.U Q R #Xd.N &XJ.R Q J $X-Xb = = = = = % + $ @ $ # @ @ + @ = - @ @ $ 4 - @ = - @ - @ - % @ @ @ @ @ % e - @ @ % 8 4 + % # 7 W =X>.P @.o.>X,.o.>XJ.B ! J OX+X",
"p. .O.W.hX,X5X9X5XhX5X(.7X2.$.5.G = - - - = @ $ @ @ 4 4 @ @ = - @ @ - 6 4 5 - = @ - - @ - % - $ - $ @ @ $ - $ $ @ - - @ @ @ @ - ^ #.@.W.9X6X8X4X9X9X6X9X9Xk.P 7.",
"g.H x.kXMXBXvXlXlXgXbXNXNXlX:.( G $ 4 @ = @ @ @ - @ A w + @ @ - @ @ $ $ $ = $ @ @ @ @ & - @ @ @ @ $ $ 4 - @ @ - - $ - $ - = @ - ^ ! W.MXNXvX9X7X4X7X7X9X7XW.I O.",
"i.W j l n ! #.W F A z z wXFXJ.[ G $ 4 $ @ @ * = $ @ - @ @ = @ @ $ 4 $ - 8 5 $ $ = @ @ = - @ = - e $ @ 8 e % $ $ $ = = @ @ - @ ; / $.>XGXE., y p p M U x g 0 A 5.",
"i.*X&.r T ] %.' Y f e   eX:X+X@XF % - $ + @ $ $ @ @ @ @ = @ = 5 4 4 8 4 4 4 $ @ - = + @ = @ + 4 z $ + @ $ 4 % @ @ @ @ - 4 4 = 5 ! <XK.xX7.+ f D ` ,.G.I.6.f L.;X",
"i.<X=.Q I.&X>XT.I.4.y ; <.<.U.L.l % % @ - = @ @ = - - 5 8 4 @ 4 @ % - @ $ @ 4 4 w 4 @ @ $ = = $ 4 $ @ @ $ 4 4 8 - $ - $ $ $ @ : ! >X+XJ.G 4 F 5.I.(.T.kX<XE y.#X",
"a.&.W ` %.V 3 V %.{ H < h >XJ.` n % % - = = - @ @ @ @ @ = = $ @ @ $ $ - - $ e p = = 8 - @ @ - = 6 @ @ @ - + 8 S e @ $ - > $ * ; / =.zX;Xy w T { ' c 2 <.e./ K $.",
"i.W P } t.X., v #.[ ~ q M xX<X#.n + @ $ + $ @ $ - = @ @ + & $ @ $ $ $ + @ % - = - ; 8 5 = + - - @ = $ @ @ + 8 l 8 - $ $ % @ $ : W #.>Xh.t < Y { ` c 2 B -.) ~ w.",
"1.>X=.) 0XzXW.U.L.6.a 5 O.h.>XL.l + % % @ @ $ $ - 4 = $ 4 - = $ @ @ + @ @ % # @ 6 4 - - @ = 5 4 = $ = $ @ @ % = @ = $ $ = $ @ = / &Xd.d.M > b 0.T.&X&XT.I.^ r.;X",
"1.<X7.s 0.J.F.>.] F r O 1X>X;XL.n @ @ @ % @ @ % @ % = = 4 = @ @ $ $ - $ $ @ $ @ - @ 4 - - - - $ - - 5 - @ 7 e $ @ $ $ = - $ @ 4 ^ >XR.lXl.  p s T %.>.{ Y r 0.+X",
"i./ r r a n Q N f r 1 > wXNXK.[ G @ + - % @ + @ $ $ - - - 5 @ @ $ @ @ @ = = & = @ = @ @ - - + @ $ - - $ % % - @ $ $ $ = - @ @ : E @.W.GXE., z z c N Q J l r d ;.",
"a.E -.1XeX8X5X7X7X7X8XBXDXlX,.^ G @ % % % $ + # + @ - = 4 - @ $ @ @ @ + $ @ $ $ = @ @ @ @ @ + = $ $ @ @ % $ - = = @ + @ @ $ 4 - ) Q P.bXmXmXlXwXlXlXwXlXlX1XE X.",
"a.W I W.9X8XhX8X4X8X8X9X6X2.! | G + 4 8 % $ # @ @ = - = = @ $ $ $ % = $ @ @ $ @ - @ @ 5 - - = - = $ $ @ 4 % = $ @ @ @ + @ $ % q ~ 4.X.P.5X(.6X5X2XhX5X).5XJ.[ w.",
"i.*Xu.M o.! U.Y.B #XJ.o.! n OX-Xk + 4 8 % @ + # $ @ $ - 4 @ - $ $ @ $ $ - w - $ @ @ @ - = @ - = - 7 = - A 7 = = @ = = $ & = @ 5 ^ %Xu.R #.` &XJ.N U.G.B ! R %XP.",
"i.q.0.| &.[ q.=.{ t.0.4.[ | q.5.b @ % @ % % % @ + @ = - 4 = $ @ $ $ $ @ - e 7 @ @ e 8 @ @ @ - - @ % $ = 7 = 4 e 4 & - - $ = + 5 ( | | [ {  .6.4.} { *.[ 4.*.{ ;.",
"p.| | } } [ 8.%.[ 0.*.&.] { } *.F $ 4 % @ $ % @ @ % $ $ = : $ @ @ = @ + - 4 $ - @ 8 - @ - $ @ $ % @ @ % $ $ = = 4 $ @ - - 4 @ 6 ~ 8.8.}  .| u.0.} 9.8.] &.4.t.t.",
"v.*XH.E ` B U.J.B >XJ.B X.U %X@Xb = - % @ $ $ @ @ - @ $ + + @ $ = = = $ - $ @ - - @ - @ 8 8 @ @ % # - % $ = - @ - $ @ - 4 7 4 p U =X>.! $.o.>XK.B >XJ.C @.U -X+X",
"i.[ o.W.9X5X6X9X4X9X6X).8XJ.O.4.J 5 $ - + @ & @ = - $ + $ = $ + @ @ $ @ - = @ @ 4 = @ - 4 $ $ - $ $ % $ @ @ & @ 7 - = @ $ % @ 8 ) / @.(.gX9X9X6XhXhXcX).gXz.M O.",
"c.H j.VXVXNXbXmXMXmXZXNXmXvX1.E J 5 - ; # - = @ = = @ @ = $ = @ @ @ $ @ @ @ @ 6 5 - @ @ @ @ @ @ $ $ $ $ @ @ @ = - 8 : @ $ $ @ 6 / R W.MXmXvXwX9X9XuX6XcXNXvX+.! ",
"a./ s.g.I +.<.Q S o.o.h wXDXJ.&.J @ @ - - - - = = 4 = - - % - $ @ @ @ @ @ @ 4 8 @ @ @ 4 4 @ + @ $ + $ $ = $ $ + @ $ @ @ $ % @ ; ^ =.;XGXz., t p j n U k M O.X.7.",
"1.>X@.: r b N x p e - X eX1X#X#XF @ $ $ * = e e 4 l e = 7 $ @ @ @ @ @ % @ @ @ - = - - @ $ @ - @ @ $ @ @ - $ % - @ $ $ % 4 - @ < W >XP.eXg.  w Z g m ^ D u : r.:X",
"1.>X=.s ] 9.F.>.^ F i : X.:.I.L.n $ $ $ # # $ = 4 = = $ $ @ @ @ + @ @ @ $ @ @ @ @ @ - @ @ 4 % $ $ $ & $ - = $ - @ @ - % + # * ; R U.#XP.S 5 g _ | F.G.I.r.d 6.+X",
"3.$.n &.H.U.T.T.H.| d 5 v ;XK.X.J $ @ # # . $ @ - @ # $ $ + = = - - @ % 4 5 - @ $ @ @ @ @ @ $ % + = @ @ $ = $ @ + + % @ @ @ @ < ^ [ xX2Xt w D 8.I.Y.T.kX0X/ x O.",
"a./ K [ { V 2 v %.| K 9 M 8X1X#.n = $ @ X . $ $ $ $ @ $ = $ $ = 4 $ = = @ = = $ % @ % @ @ $ @ + - @ + @ ; - @ $ # @ $ @ + @ @ 6 E #.>XJ.t r Y ] B 3 o @.7./ [ 7.",
"a.#Xy.W F.o.3 V $.4.K 9 :.J.<XI.x : 4 - # @ & + % % + $ # = $ + @ - = $ % - 4 $ @ @ $ @ @ @ @ + = @ $ - > $ + + = % @ & : = 6 8 R >Xd.;.M w U [ >.B V B -.Y OX;X",
"i.<X=./ jXzX>XT.L.6.p O 7X8X;XI.b = $ = @ * - # $ @ $ - $ 4 @ * 7 e = = $ ; z - $ % $ # @ + % @ - > = w 4 $ @ $ - = $ - = - 6 4 ) #XR.xXl.. d | Y.T.>XT.J.T 6.+X",
"a.6.D x >.G.t.>.E Z p . eXVXJ.#.G & + @ @ . & - - $ 4 A 4 $ $ * 8 e ; = # + % - > - @ # % @ % # + $ = 5 4 - % % # # $ + @ @ @ - / #.W.GXE.  w d N } ] ] Y f f ;.",
"a.) q r t b R G f p > z.DXwX2.T F ; : @ $ % % % @ @ $ 4 # # # @ . - = $ $ + + = = @ . : 7 $ % # @ @ & l e @ 6 - $ : . . @ @ @ : ) Q K.cXmX3.z n N C @.! I a r O.",
"a.&.A -.+X+XU.W.c.;XW.4X4X2.O.5.G - - $ % % % - % $ % $ * # # % * * + % 4 @ @ = 4 = . * e - > % # @ $ 8 w p - w - & & @ @ $ @ 6 ) r.! K.4X,X1X1X;X3XW.W.>X7.Q f.",
"i.@Xu.K / ) #X#X^ #XI.! ! H OXL.k @ @ + + % $ % @ + @ + + * - @ = - # # # @ @ @ # @ @ + X * 4 % @ @ @ @ $ e - 7 - @ @ @ % + $ q K @Xq.E / R #Xx.N U.L.N ( K OXP.",
"a.g.k.e.:.p.c.c.7.g.g.p.e.g.g.l.o.a f l j p a a l a f f l a j n G k k k k k p A k j l k k k k k k d k k k d d k k j k k G G Z A :.z.z.a.c.1.z.z.2.z.z.s.g.z.l.a.",
"D.Z.|.uX'.uX'.|.tX`.uX'.yXuXyXuXB.>.9.[ / w.,.*.( 9.G.>.(  .0.8.} q.9.[ [ w.;.#./ r.H.=./ ^ r.q.( r.5.^ ] t.h.=.^ 0.L.5.~ ( t.w./.yXsXfXsX].iXfXfXdXdX].iXdXiXXX",
"D.!.yXyX].pXyXoX|.aXsXiX|.yXsXfXV.@Xu.W ` L.3Xd.e.>X3XJ.=.W OX-XW I.w.' #.P.>XJ.d.>X<XJ.*.Q OX-X~ #Xw.! %.I.>XJ.k.>X3XJ.&.E L.P.S.iXpXpXiX`.uXsXaXaXsX`.yXsXyX`.",
"n.!.yXyX].uXsX|.}.sXaXfX].}.sXsXV.$.<.K.lX,X:.P.MX3XJ.eXgXK.M ] *./ o.W.xX>X:.P.FX,XJ.9XxXK.B ] 8.} $.,XMX2X,.P.xX,XK.kXxXK.N &./.oXiXsXiX`.yXsXsXaXsX].yXsXyX`.",
"b.!.yXyX.XpXsX|.|.sXaXsX X}.pXpXV.B K.mXDXGXP.! 7.:.2XNXNXgX<.Q 8.W W.nXmXSXP.J ;.$.1XMXNXcX:.W 0._ U.mXNXDX+XP O.O.1XNXZXnX:.X./.fXiXyXyX`.iXiXyXaXsX`.yXsXyX`.",
"m.~.oXsXpXpXsX|.}.sXsXaXfX X{.aXV.P Q.vX+.h j 0 r r t 1 gXNX1.) 4.Y K.ZX2.: r q q 0 y , ,XNX:.Q q.R K.ZXQ.; w 0 u i r < +.vX1.E rXdX}.].sXXXyX.X{.sXsX`.yXfXyX`.",
"b.~.oXsXpXaXsX}.}.sXaXsXsX|.}.dXV./ >Xk.; r f H x i 0 @ 7XmXP.5.*.-.W.VX3.& r x K x r & i.BXK.w.] %.W.ZXE.@ i 0 d J f r : <.W.7.^.dX|.}.aX].iX|.|.sXaX{.yXaXyXXX",
"m.!.oXsXiX.XpX}.}.sXaXaXsXyX{.dXV.OXkXo.q K / ] ( L f 5 Q.cX,X#X[ @X8XmX:.q K ^ / ~ K q z.gX,XI.} T.8XCXE.6 f G ) / ( L i o.1XL.^.dX|.}.pX].iX.X|.sXaX`.yXaXiXXX",
"b.!.oXsXyX].uX|.}.fXaXaXaX|.`.dX/.K ;X:.r >.G.` t.r.d e Q.cX2./ 4.W P.mX7.i H.>.X.G.w.r k.cX<.Q q.T K.NXl.6 Z 0.t.] t.0.f -.,.! rXdX|.{.aX].yX.X}.dXaX].yXsXyX`.",
"b.!.yXuXiXXXiX}.}.sXaXpXaX|.{.dXV.Q ,X,.x I.F.v ,.I.U t (.vXK.-.5.] (.NXe.b I.,.v F.J.x K.cXK.>.| ] W.ZXK.0 Y I.,.c F.I.b -.W.=.^.pX|.|.yX.XuX|.|.dXpX].yXsXyX`.",
"m.!.oXsXiX`.iX}.|.pXaXpXaXyX}.dX/.I.kX,.N Y.F.o <.T.` M Q.vX,XY.4.I.,XnXJ.R T.>.o <.T.R K.cX,XL.} @X,XmXE.x ' T.<.o <.T.E e.2XOX^.|.oXyX].sXsX.X.XsXaX].yXsXyX`.",
"m.!.oXsXiXXXyXaXpXpXpXpXaXiXiXfXV.W >Xk.R I.,.2 J.qX` l Q.nX3.W 8.Y K.VXj.H T.<.2 U.>XY d.vX2.Q 8.W K.ZXE.c ^ T.>.2 Y.3XK y.,.T rX.X XyX].pXsX|.|.sXaX]. XsXyX`.",
"m.~.oXsXiXXXiXaXsXpXpXsXfXfXaXfX/.N >X,.j L.G.Q <X0XK q 4XNX2.( ..W K.VXf.f G.F.] 0X0Xf ;.mX:.^ 8.W P.ZXK.9 D L.y.` 2X0Xl 7.h.Y ^..X XyX].pXsX|.|.sXaX].yXsXyX`.",
"b.!.yXyX|.`.tXyX X XyX X X XyX X/.E #X7.i &.w.%.y.9.u r lXvX-.( | T K.MX7.9 { >.] q.5.u 5.lX+.Y 8.U P.MX4Xt 0 [ q.` 0.6.w ) =.T ^.}. XyX].uXsX|.|.sXaX].yXaXyX`.",
"D.A.Z.Z.Z.Z.Z.Z.Z.Z.Z.Z.Z.Z.Z.Z.V.( #.a u F ' Q H b j M ,X:.M 9.{ 4.` J.I f ! E W Q I f I :.X.0.*.9.O.J.:XM b Z n #.O.L i r / 4.^.|.yXuX|.aXsX|.|.sXaX].yXsXyX`.",
"D.m.N.N.N.N.N.N.N.N.N.N.D.N.N.N.M.@XH.x L u.*Xt.D H.<X,.E m H.@X} %XH.d G OXqXu.F H.<X0.A H OX@XT =XH.x b L.qXu.m H.qX0.L D @XOX/.}.|.sXpXpXsX|.|.aXyX}.yXsXyX`.",
"D.!.}.[.[.[.`.`.`.[.[.`.`.`.`.tX/.:.e.e.7.j.k.f.u.y.2.k.f.s.y.d.s.7.e.x.7.g.x.g.7.e.k.u.u.g.f.e.y.;.r.f.7.g.g.f.f.e.d.7.7.h.e.e.rX].|.sXaXaXsX}.|.pX].aXaXsXyX]."
};
