/* XPM */
static char *wall_sprite_resized[] = {
/* columns rows colors chars-per-pixel */
"80 80 68 1 ",
"  c #5B636E",
". c #5D6573",
"X c #5E6976",
"o c #5E6779",
"O c #5E6978",
"+ c #606777",
"@ c #606A75",
"# c #616C7B",
"$ c #67737F",
"% c #667381",
"& c #6A7583",
"* c #6C7A87",
"= c #6D7C8A",
"- c #717E8C",
"; c #73808E",
": c #748493",
"> c #788594",
", c #778897",
"< c #788997",
"1 c #778798",
"2 c #758898",
"3 c #7C8C9B",
"4 c #7F909E",
"5 c #7E8FA0",
"6 c #7E90A1",
"7 c #808F9E",
"8 c #80909E",
"9 c #808FA0",
"0 c #8090A0",
"q c #8597A9",
"w c #879AAA",
"e c #8A9DAD",
"r c #8B9EB1",
"t c #8DA0AF",
"y c #8FA2B4",
"u c #92A5B5",
"i c #95A9B6",
"p c #94A7B8",
"a c #94AABB",
"s c #99ACBC",
"d c #9FB1BD",
"f c #9AAEC1",
"g c #9EB3C4",
"h c #A2B5C6",
"j c #A6B8C6",
"k c #A3B7C8",
"l c #A6BCCD",
"z c #AABFCF",
"x c #AABFD0",
"c c #ACC1CE",
"v c #A7C0D1",
"b c #ACC1D2",
"n c #B4C6D5",
"m c #B5C9D7",
"M c #B6C7DA",
"N c #B6C9D9",
"B c #BBCEDB",
"V c #BDD1DD",
"C c #BDCFE2",
"Z c #BDD3E2",
"A c #C5D7E4",
"S c #C6D8E5",
"D c #C8DAE7",
"F c #C6D9E9",
"G c #CDDEEB",
"H c #CDE1EE",
"J c #D1E3EF",
"K c #D2E4F1",
/* pixels */
"...        .                   .    ....    .   .     . .      .  . ..          ",
"==;==-;;=;;==;=;=-;;=;;=;=;;=-;=;:,2-====-;;;=;==;;;==;=;;;=;=;;==;==;;=;=;;>X*:",
"ccczzzzcccccccvvzzczvccclcvvzzzch8=:icclzzzcvcccccvvzzccvclcccvvzzczcclzccvj8O=u",
"GDHDGGGGDHDHDHDHGGGGDHDHGHHDGGGGV3X&dJGGGGGDDHDGDDHDGGGDDHGGDDHDGGGDDHHGDHHV4X*s",
"llllllllllllllllllllllllljzlllxxg3o=ivxzlllzllllvlzlllzllllzlllllllzlllzllzh7@*y",
"ccvvccvxcxcbcvccbvczzxxxvcxxzzvbl3O=ibxxvvcccvcvcczbczxxczzvccccxbccczzvvccl0o=y",
"xxxxzxxxzxxxzxvzxxxxzxxxvcxxzxzbh3X=abxxxxxxzxxxzvzxzxxxzvxxxxcvxxxxzvxxccvj9o=y",
"xxxxxxxxxxxxxxxvxxxxxxxxcbxxxxxvh3X=abxxxxxxxxxxvzvxzxxxxxzxxxxxxxxxxzxxvzvl8o=y",
"xxxxxxxxxxxxxxxxxxxxxxxxxxxxxxxbl3.=abvxxxxxxxxxzxxxxxxxxxxxxxxxxxxxxxxxxxbj0O*y",
"xxxxxxxzxxxxxxxxxxxxxxxxxxxxxxxbh3X-abxxxxxxxxxxxxxxxxxxxxxzxxxxxxxxxxxxxcbj0o*y",
"xzxxxxxxxxxzxxxxxxxxxxxxxxxxxxxbj3X=abxxxxxxxzxxxxxxxxzxzxxxxxxxxxzxxxxzxxvl4O=y",
"xxxxxxxxxxxxxxxxxxxxxxxxxxxxxxxbh3X-pbxxxxzxxxxxxxxxxxxxvxxxxxxxxxxxxxxxxxcl6O*y",
"xxxxxxxxxxxxxzxxxxxxxxxxxxxxxzxbh3X=ibxxxxxxzxxxxxxxxxxxxxxxxxxzxxxxxxxxxxvl0O=y",
"xxxxxxxxxxxxxxxxxxxxxxxxxxxxxxxvj3X-abxxxxxxxxxxxxxxxxxxzxxxxxxxxxxxxxxxxzvj0o=y",
"xxxxxxxxzxxxxxxxxxxxxxxxxxxxxxxbj3X=abxxxxxxxxxxxxxxxxxxxxxxxxxxxxxxzxxxxzbl0o*y",
"xxxxxxxxxxxxxxxxxxxxxxxxxxxxxzzbk3X=abxxxxxxxxxxxxxxxxxxxxxxxxxxxxxxxxxxxcvj0o*y",
"zzzzzxxzzxzxxxxzxzxxxxxxxxxxxzzxh3X-pbxxxxxxxxxxzvzzxxxvbzxxxxxzzzxxxzzzzzbj0o*u",
"bvbnbbbbxnxbbbbnbxbnxbbbbnbbbbxnj,.-anvbbbbbbbbbbbbbbbvbbbbbbbbbbbbbbvbbbbnl7o*u",
"ssssssssssssssssssssssssfssfsssfp9*2rfssssssssfssssssssssssssssssssssssssssp9#-e",
":::;:-::::-::::-:::-:-::-:--::-:::>>::-:-:-:-:--;:;:;;:;::-;;:;:;:;:::-:--::>+&>",
"XXX@+XX+XXXoXoXX+.X.+XXXXXXXXoXX+X.X++XX+XXXXX.XXX+X+XX .OX+XXXXXX+oXooo+X@XXXoX",
"::::::2:::::::2*+<:::22::2:2:2:2:22:2:::222:22:22::::2<.-3;:::2:::::::2:2:2:::::",
"BNNBBBBNBBBNNBp*@8nCBBBBBBBBBBCNBBNBBBBBBBNBBBBBBBBBVc3.;gBBBNNBBBNBNBBNNBBNBNBB",
"AAAAAAAAAAAAAGa*#0BFAAAAAAAAAAAFSAASAASSSAAAAAAFAAAADn3.-kDASAAAAAAAAAAFAAAAAAAA",
"xlllllllllllllr=+0kxlllllxlllllxlxlllxllzllllllllxllxg3.;azlllllllllllxlllllxlll",
"xxxxxxxbxxxbxMp=@6lxxxxxxxxxxxxxxxxxxxxxvvxxxxbxxvxxxg3X;anxxxxxxxxxxxxxxxxxxxxb",
"xxxxxxxxxxxxxxr=@9lzzxxxxxxxxxxxxxxxxxxxzxxxxxxxxxxxvh3.;abvxxxxxxxxxxxxxxxxxxxx",
"xxxxxxxxxxxxxxu=@9lxxxxxxxxxxxxxxxxxxxxxxxxxxxxxxxxxbh3X;abbxxxxxxxxxxxxxxxxxxxx",
"xxxxxxxxxxxxxbp=@6lzzxxxxxxxxxxxxxxxxxxxxxxxxxxxxxxxbh3.:abzxxxxxxxxxxxxxxxxxxxx",
"xxxxxxxxxxxxbbr=@0lbzxxxxxxxxxxxxxxxxxxxxxxxxxxxxxxxxh3.-abzxxxxxxxxxxxxxxxxxxzx",
"xxxxxxxxxxxbxbp=@0lcxxxzxxxxxxxxxxxxxxxxxxxzxxxxxxxxbh3.;anzxxxxxxxxxxxxxxxxxxxx",
"xxxxxxxxxxxxxby=@6lzxxxxxxxxxxxxxxxxxxxxxxxxxxxxxxxxbh3+:abxxxxxxxxxxxxxxxxxxxxx",
"xxxxzxxzxxxxxxy*@9lcxxxxxxxxxxxxxxxxxxxxxxxxxxxxxxxzbh2X;abzzxxxxxzxxxxxxxzxxxxx",
"xxxxxxxbxxxxxxy=@9lzxxxxxxxxxxxzxxxxxxxxxxxxxxxxxxxxxh3+:anzzxxxxxxxxxxxxxxxxxxx",
"xxxxxxzzxxxxxxu=@0lzxxcxxxzxxxcbxxxxxxxxxxxcxxxxxxbzbh3.-abbxxxxxxvvxxxxxxxxxxxz",
"xxxxxxbbxxxxxMu=X9lbzxzbxxxxxxvvxxxxxxxxxxxbxxzxxxxzbg3X;sbvxxxxzbzcxxxxxxxxzxxb",
"zzzzzzxvxxxlzbu*X8lccczvzzzzcvvczbvvxxxxcvcvvcvczzzzxh3.-abzzzzzcvvccvcvxxcxzxcv",
"nbbbbbvbxnbbvnu*O8zbbbvbnbbvbbbbbbbbxnxxbbvbvbbbxnxznj3X-snbnbbvbcbbbbbbnnbbbvbv",
"uuuuuuuuuupuuue=o0yuuuuuuuuuiyyiuuuuuupuuuuuiuuuuuuuur2.:rpuuuuuuuyyyiiyuuuuuuuu",
"******=&=**=**-%.-=***=*=*******===*******=****=***-&-7.&-*******===****&***==**",
"@#oXoXo@OoXoXoXO#@ooXoO@ooXoO@oOX# .#+@X#XoXOoOOoX##X%3#OO#+#o@oOOoOOoXo@oX@X.XO",
"6566666666666666666666665566606667o-07755566666665506663669036666666666664488O-4",
"ASSSSASSAFFFSAAASSSSSASSFAFFSSAFB3X=hDASSSSSAAFASASSASFFFASSSSSSAAAFSASASSFB8O=s",
"BBBVVBVVBBBCVVVBBBVBBVBVNCNCVBVVc3X*fZBBBVBBBBBCBBBBBBBCBCCBBBVBBBBCVVVBBVZn6O*u",
"lllllxzllllllllxlxlxxzlllxlxlxxxh5o*pxlxxlxxllllxxlllxlllxlxxlllxlllllzzxlxk0O=y",
"vxbxvvxxbvbxxxxxxxxvvvvxxxxxxxxbj3X-abvvvxvxxxxxxxxxxxxxxxxvxxvbxxxxxxxxxxzl4O=y",
"bxxxxxxxxxxxxxxxxxxxxxxxxxxxxxxxj3X=pbvxxxxxxxxxxxxxxxxxxxxxxxvxxxxxxxxxxzvl8o=y",
"xxxxxxxxxxxxxxxxxxxxxxxxxxxxxxxbk3X-abxxxxxxxxxxxxxxxxxxxxxxxxxxxxxxxxxxxzvj0X*y",
"xxxxxxxxzxxxxxxxxxxxxxxxxxxxxxxbh3o=abzxxxxxxxzxxxxxxxxzxxxxxxxxxxxxxxxxxxnj0O=y",
"xxxxxxxxxxxxxxxxxxxzxxxxxxxzxxxxh4o=abxxxxxxxxxxxxxxxxxxxxxxxxzxxxxxzxxxxzxj4O=y",
"xxxxxxxxxxxxxxzxxxxxxxxxxxxxxxxbh4X=ybzxxxxxxxxxxxxxxxxxxxxxxxxxxxxxxxxxxzxl0o*y",
"xxxxxxxxxxxxxxxxxxxxxxxxxxxxxxxbh3X;abxxzxxxxxxxxxxxxxxxxxxxxxxxxxxxxxxxxzzl0o*y",
"xxxxxxxxxxxxxxxxxxxxxxxxxxxxxxxbj3.;pbvxxxxxxxxxxxxxxxxxxxxxxxxxxxxxxxxxxzbl7o*u",
"xxxxxxxxxxxxxxxxxxxxxxxxxxxxxxxbh4X=abxxxxxxxxxxxxxxxxxxxxxxxxxxxxzxxxxxxxxj8o*y",
"xxxxxxxzxxxxxzzxzxxxxxxxzzxxzxxbj3X=unxxxxzxxxxxxxxxzzxxxxxxxzzxxxxzxxxxzxxj8o=y",
"xxxxxxxxxxzxxxzxxxxxxxxxxxxzxzbbk4o=unzxxxxxxxxxxxxxxxxzxxzxxxzxxzxxxxxxxzbl0o-y",
"bxvxxxvxxxxxxxxxxxxxbxxxxxxxxxznk3X=ibxxvbxxxxxvbxxxxbxxxxxxxxxxxbxxxxxbxxcj8o*y",
"xxbxbbvcnxxzxxbxxcbxbxxxxxxxxzzxj3.=inzxbbxbxbvxxvvxxvxcznxxxbxbxcxbxbvxxbvl8o*y",
"reeeeeeeeeeeeerreeetreeerreeeeeee0X;weeeeeeereeereeereeeeeeeeerreeeereeeeetw0O-w",
"%%%%%%$&$$$$%%%%&$$$%%%%%%$$$$&$%%.#&$%$$$$&%%%$%%%$$%%&%%%%%%%%$$$$%%%%%%%%&.#&",
"####@###O$##o#$o+##@###@##############################$ @$#####O################",
"eeeeeeeewwtwerw=#0weeeeeeeeeeeeeeeeeeeeeeeeeeeeeeeeeee3.>eeeeeereeeeeereeeeeerrr",
"GJHGGJGJHHHHHKd&+0AGGJGJGGGJJGGGJGJGGGGGGGGGGJJGGHHGJB<@-lKGJGHHGJGGJGGGGJHGHGGH",
"nnnnnnnnnnnnnmi*#9xMnMnnMnnMnnnnnMnnMnnMnnnnnnnnnnnnmj3@-snnnnnnnnMnnnnnnnnnnnnM",
"zzxlxlxlxxxxxxy*o9kxzlxxlxlxlxlxxxlxlxxlxlxlxxlxllxxxg2#:axzzzxlxlxlxxlxzxxlxlxl",
"xxxxxxxxxxxxxxy=+9lxxxxxxxxxxxxxxxxxxxxxxxxxxxxxxxvvbh3X;sbxxxxxxxxxxxxxxxxxxxxx",
"xxxxxxxxxxxxxxf=+9lxxxxxxxxxxxxxxxxxxxxxxxxxxxxxxxxvxh,X:abzxxxxxxxxxxxxxxxxxxxx",
"xxxxxxxxxxxxxxu=+9lxzxxxxxxxxxxxxxxxxxxxxxxxxxxxxxxvxh,X;sbzxxxxxxxxxxxxxxxxxxxx",
"xxxxxxxxxxxxxxy=+9lzzzxxxxxxxxxxxxxxxxxxxxxxxxxxxxxxnh3.:avzxxxxxxxxxxxxxxxxxxxx",
"xxxxxxxxxxxxxxy*#0lbzxxxxxxxxxxxxxxxxxxxxxxxxxxxxxxxxh3X=fbbxxxxxxxxxxxxxxxxxxxx",
"xxxxxxxxxxxxxxu=+0lzxxxxxxxxxxxxxxxxxxxxxxxxxxxxxxxxxh3.;sbzxxxxxxxxxxxxxxxxxxxx",
"xxxxxxxxxxxxxxu*@0lzxxxxxxxxxxxxxxzxxxxxxxxxxxxxxxxxbf3X;sbzxxxxxxxxxxxxxxxxxxxx",
"xxxxxxxxxxxxxxp*@5lbxzxxxxxxxxxxxxxxxxxxxxxxxxxxxxxxbh2X-fbzxxxxxxxxxxxxxxxxxxxx",
"xxxxxxxxxxxvxxp-@7lzxxxxxxxxxxxxxxxxxxxxxxxxxxxxxxxvxh3+;sbzxxxxxxxxxxxxxxxxxxxx",
"xxxxxxxxxxxxxxy*@4lzzxxxxxxxxxxxxxxxxxxxxxxxxxxxxxxxbh3X:abzxxxxxxxxxxxxxxxxxxxx",
"xxxxxxxxxxxxxxu*@0lvxxxxxxxxxxxxxxxxxxxzxxxxxxxxxxxxxh3+-sbzxxxxxxxxxxxxxxxxxxxx",
"xxxxxxxxxxxxxnu=@0lbxxxxxxxxxxxxxxxxxxxxxxxxxxxxxxxxnh2+;sbzbxxxxxxxxxxxxxxxxxxx",
"xxxxxxxxxxxxzxu*@6lzxxxxxxxxxxxxxxxxxxxxxxxxxxxxxxxxxh,X=fbzxxxxxxxxxxxxxxxxxxxx",
"xxxxvvbxbxvbxxp*@0lzxvvvxxxxxxxxbxbvxxvbxbxvbxbvxvvxxh3X:abcxbxxxxxxxvbvxvvvbvbx",
"ereereeeeeeeeew=X7eereeeerrereereeereeereeeeeeeeereeee3.:qteeeereererwreeereeeee"
};
